<?xml version="1.0" encoding="UTF-8"?>
<svg width="52px" height="52px" viewBox="0 0 52 52" version="1.1" xmlns="http://www.w3.org/2000/svg" xmlns:xlink="http://www.w3.org/1999/xlink">
    <!-- Generator: Sketch 54.1 (76490) - https://sketchapp.com -->
    <title>agility</title>
    <desc>Created with Sketch.</desc>
    <g id="agility" stroke="none" stroke-width="1" fill="none" fill-rule="evenodd">
        <g id="Group" transform="translate(1.000000, 2.000000)" fill="#000000" fill-rule="nonzero">
            <g>
                <path d="M14.3611702,43.1276364 C14.2646809,43.1276364 14.1671277,43.1015455 14.0793617,43.0467121 C11.0032979,41.1262727 8.43308511,38.4480303 6.64659574,35.3015303 C4.80382979,32.0558636 3.82978723,28.3575303 3.82978723,24.6060606 C3.82978723,20.1625455 5.16542553,15.8893636 7.69234043,12.2486212 C10.1607447,8.69219697 13.5890426,5.97333333 17.6064894,4.38581818 C17.8795745,4.27795455 18.1887234,4.41127273 18.2970213,4.68342424 C18.4052128,4.95568182 18.2715957,5.26389394 17.9985106,5.37186364 C10.0375532,8.51740909 4.89361702,16.0673333 4.89361702,24.6060606 C4.89361702,31.7784091 8.53861702,38.3360303 14.6439362,42.1478485 C14.8928723,42.3033333 14.9682979,42.6305303 14.8124468,42.8788182 C14.7114894,43.0393939 14.5382979,43.1276364 14.3611702,43.1276364 Z" id="Path"></path>
                <path d="M25.6382979,46.3484848 L0.531914894,46.3484848 C0.238191489,46.3484848 0,46.1111212 0,45.8181818 C0,45.5253485 0.238191489,45.2878788 0.531914894,45.2878788 L25.6382979,45.2878788 C27.6261702,45.2878788 29.5919149,45.0080909 31.4810638,44.4563636 C31.7628723,44.3740606 32.0584043,44.5352727 32.1409574,44.8162273 C32.2235106,45.0972879 32.0620213,45.3919242 31.78,45.4742273 C29.7938298,46.0543788 27.7274468,46.3484848 25.6382979,46.3484848 Z M36.4937234,43.384197 C36.3124468,43.384197 36.1358511,43.2918182 36.0362766,43.125303 C35.8858511,42.8737273 35.9685106,42.5482273 36.2208511,42.3983636 L36.3101064,42.3451212 C36.5619149,42.194197 36.8887234,42.2754394 37.04,42.5264848 C37.191383,42.7774242 37.1098936,43.1032424 36.8581915,43.2541667 L36.7654255,43.3094242 C36.6802128,43.3600152 36.5862766,43.384197 36.4937234,43.384197 Z M40.7548936,40.0636515 C40.6196809,40.0636515 40.4842553,40.0126364 40.3805319,39.9101818 C40.1718085,39.7041061 40.1701064,39.3683182 40.3770213,39.1602273 C44.25,35.2620758 46.3829787,30.0933182 46.3829787,24.6060606 C46.3829787,13.2021061 37.0769149,3.92424242 25.6382979,3.92424242 C25.4510638,3.92424242 25.2775532,3.82613636 25.1815957,3.66587879 C25.0856383,3.50562121 25.0811702,3.30686364 25.17,3.1424697 L26.6593617,0.384893939 C26.7987234,0.126954545 27.1214894,0.0306515152 27.3797872,0.169378788 C27.6385106,0.308212121 27.7353191,0.629787879 27.5959574,0.887727273 L26.5193617,2.8810303 C38.1378723,3.34366667 47.4468085,12.9115 47.4468085,24.6060606 C47.4468085,30.374803 45.2044681,35.8085 41.132766,39.9065758 C41.0287234,40.0112576 40.8918085,40.0636515 40.7548936,40.0636515 Z" id="Shape"></path>
                <path d="M27.1281915,6.46980303 C26.9451064,6.46980303 26.7670213,6.37551515 26.6681915,6.20666667 L25.1788298,3.66121212 C25.0308511,3.40825758 25.1164894,3.0835 25.3703191,2.9359697 C25.6243617,2.78843939 25.9497872,2.8740303 26.0978723,3.12677273 L27.587234,5.67222727 C27.7352128,5.92518182 27.6494681,6.24993939 27.3957447,6.3974697 C27.3114894,6.4464697 27.2191489,6.46980303 27.1281915,6.46980303 Z" id="Path"></path>
                <path d="M49.4680851,46.7727273 L36.7021277,46.7727273 C36.4082979,46.7727273 36.1702128,46.5353636 36.1702128,46.2424242 C36.1702128,45.9495909 36.4082979,45.7121212 36.7021277,45.7121212 L48.1839362,45.7121212 L46.9643617,44.4962424 C46.7565957,44.2891061 46.7565957,43.9533182 46.9643617,43.7462879 C47.1719149,43.5392576 47.5089362,43.5392576 47.7164894,43.7462879 L49.8441489,45.8675 C49.996383,46.0191667 50.0418085,46.247197 49.9594681,46.4454242 C49.877234,46.6435455 49.6831915,46.7727273 49.4680851,46.7727273 Z" id="Path"></path>
                <path d="M47.3404255,48.8939394 C47.2043617,48.8939394 47.0680851,48.8421818 46.9643617,48.7386667 C46.7565957,48.5315303 46.7565957,48.1957424 46.9643617,47.9887121 L49.0920213,45.8675 C49.2995745,45.6604697 49.6365957,45.6604697 49.8441489,45.8675 C50.0519149,46.0745303 50.0519149,46.4103182 49.8441489,46.6174545 L47.7164894,48.7386667 C47.612766,48.8421818 47.4764894,48.8939394 47.3404255,48.8939394 Z" id="Path"></path>
                <path d="M25.6382979,33.6212121 C20.652234,33.6212121 16.5957447,29.5770152 16.5957447,24.6060606 C16.5957447,19.6351061 20.652234,15.5909091 25.6382979,15.5909091 C27.9975532,15.5909091 30.2303191,16.4913636 31.9254255,18.1265 C33.616383,19.7576061 34.5928723,21.9446818 34.6752128,24.284803 C34.677234,24.3405909 34.6704255,24.3946818 34.6561702,24.445697 C34.672234,24.4962879 34.6808511,24.5501667 34.6808511,24.6060606 C34.6808511,29.5770152 30.6243617,33.6212121 25.6382979,33.6212121 Z M25.6382979,16.6515152 C21.2388298,16.6515152 17.6595745,20.2199242 17.6595745,24.6060606 C17.6595745,28.992197 21.2388298,32.5606061 25.6382979,32.5606061 C30.037766,32.5606061 33.6170213,28.992197 33.6170213,24.6060606 C33.6170213,24.5568485 33.6237234,24.5091212 33.636383,24.4638333 C33.6221277,24.4189697 33.6137234,24.3713485 33.6120213,24.3220303 C33.4607447,20.0208485 29.9582979,16.6515152 25.6382979,16.6515152 Z" id="Shape"></path>
                <path d="M25.6382979,26.1969697 C24.7584043,26.1969697 24.0425532,25.4832879 24.0425532,24.6060606 C24.0425532,23.7288333 24.7584043,23.0151515 25.6382979,23.0151515 C26.5181915,23.0151515 27.2340426,23.7288333 27.2340426,24.6060606 C27.2340426,25.4832879 26.5181915,26.1969697 25.6382979,26.1969697 Z M25.6382979,24.0757576 C25.345,24.0757576 25.106383,24.3136515 25.106383,24.6060606 C25.106383,24.8984697 25.345,25.1363636 25.6382979,25.1363636 C25.9315957,25.1363636 26.1702128,24.8984697 26.1702128,24.6060606 C26.1702128,24.3137576 25.9315957,24.0757576 25.6382979,24.0757576 Z" id="Shape"></path>
                <path d="M26.0638298,24.5 C25.927766,24.5 25.7914894,24.4482424 25.6876596,24.3447273 C25.48,24.1375909 25.48,23.801803 25.6876596,23.5947727 L28.8792553,20.4129545 C29.0868085,20.2059242 29.4238298,20.2059242 29.631383,20.4129545 C29.8391489,20.6200909 29.8391489,20.9558788 29.631383,21.1629091 L26.4398936,24.3447273 C26.3361702,24.4482424 26.1998936,24.5 26.0638298,24.5 Z" id="Path"></path>
                <path d="M25.6382979,37.8636364 C18.3058511,37.8636364 12.3404255,31.9163939 12.3404255,24.6060606 C12.3404255,21.5694394 13.3965957,18.6018636 15.3144681,16.2498636 C17.1139362,14.0431667 19.5960638,12.4604242 22.3404255,11.7606364 L22.3404255,9.12121212 C22.3404255,8.82837879 22.578617,8.59090909 22.8723404,8.59090909 L28.1914894,8.59090909 C28.4853191,8.59090909 28.7234043,8.82837879 28.7234043,9.12121212 L28.7234043,11.7075 C34.6669149,13.1153485 38.9361702,18.471197 38.9361702,24.6060606 C38.9361702,26.3090758 38.6168085,27.9671212 37.9869149,29.5343788 C37.8775532,29.8062121 37.5678723,29.9385758 37.2953191,29.8293333 C37.0226596,29.7205152 36.8901064,29.4116667 36.9993617,29.1398333 C37.578617,27.6986818 37.8723404,26.1732121 37.8723404,24.6060606 C37.8723404,18.8278788 33.7564894,13.8010303 28.0856383,12.6533485 C27.837766,12.6031818 27.6595745,12.3858636 27.6595745,12.1336515 L27.6595745,9.65151515 L23.4042553,9.65151515 L23.4042553,12.1792576 C23.4042553,12.4280758 23.2307447,12.6433788 22.9871277,12.6970455 C17.4343617,13.9201364 13.4042553,18.9286364 13.4042553,24.6060606 C13.4042553,31.3314697 18.8924468,36.8030303 25.6382979,36.8030303 C27.0753191,36.8030303 28.4821277,36.5571818 29.8198936,36.0721667 C30.0961702,35.9720455 30.4011702,36.1140606 30.5015957,36.3892879 C30.6019149,36.6645152 30.4594681,36.968803 30.1835106,37.0688182 C28.7289362,37.5962576 27.1996809,37.8636364 25.6382979,37.8636364 Z M34.4815957,34.3153788 C34.3419149,34.3153788 34.2024468,34.2608636 34.0980851,34.1525758 C33.8944681,33.9415152 33.9010638,33.6058333 34.1129787,33.4028333 L34.1861702,33.3320909 C34.3962766,33.1272879 34.7330851,33.1311061 34.9382979,33.3405758 C35.1437234,33.5500455 35.1398936,33.8858333 34.9297872,34.0905303 L34.8502128,34.1674242 C34.7470213,34.2661667 34.6141489,34.3153788 34.4815957,34.3153788 Z" id="Shape"></path>
            </g>
        </g>
    </g>
</svg>