<?xml version="1.0" encoding="UTF-8"?>
<svg width="52px" height="52px" viewBox="0 0 52 52" version="1.1" xmlns="http://www.w3.org/2000/svg" xmlns:xlink="http://www.w3.org/1999/xlink">
    <!-- Generator: Sketch 54.1 (76490) - https://sketchapp.com -->
    <title>delivery</title>
    <desc>Created with Sketch.</desc>
    <g id="delivery" stroke="none" stroke-width="1" fill="none" fill-rule="evenodd">
        <path d="M1.83333333,34.3333343 C1.37309604,34.3333343 1,33.9602383 1,33.5 L1,11.8333377 C1,11.3731004 1.37309604,11.0000044 1.83333333,11.0000044 L27.825,11.0000044 C28.9752872,10.99857 30.0992525,11.344182 31.05,11.991671 L48.4916667,23.8333359 C48.6805,23.9611184 48.8613893,24.1002639 49.0333333,24.2500025 C49.1790715,24.3789439 49.3181409,24.5152319 49.45,24.6583358 L49.5,24.7083357 C50.2506492,25.5351693 50.7430857,26.5634926 50.9166667,27.6666686 C50.9587765,27.8980717 50.9866069,28.1318468 51,28.3666685 C51,28.4416685 51,28.5166685 51,28.5916685 C51,31.762703 48.4293683,34.3333343 45.2583333,34.3333343 L1.83333333,34.3333343 Z M27.825,12.6666709 L21.8333333,12.6666708 L21.8333333,27.5666687 L49.1916667,27.5666687 C49.0102941,26.8818707 48.6542341,26.2558943 48.1583333,25.7500023 L48.0666667,25.6583356 C47.9066667,25.5024315 47.7338351,25.3602636 47.55,25.2333357 L30.1166667,13.3750041 C29.4415959,12.9133852 28.6428097,12.6664877 27.825,12.6666709 Z M20.1666667,12.6666709 L2.66666667,12.6666709 L2.66666667,27.6666709 L17.6666667,27.6666709 C18.126904,27.6666686 18.5,28.0397646 18.5,28.5000019 C18.5,28.9602391 18.126904,29.3333351 17.6666667,29.3333351 L2.66666667,29.3333351 L2.66666667,32.6666709 L45.2583333,32.6666679 C47.2564819,32.6623857 48.9554835,31.2071081 49.2666667,29.2333351 L21,29.2333351 C20.5397627,29.2333351 20.1666667,28.8602391 20.1666667,28.4000019 L20.1666667,12.6666709 Z M50.1666667,36.0000007 C50.626904,36.0000007 51,36.3730967 51,36.833334 C51,37.2935712 50.626904,37.6666672 50.1666667,37.6666672 L46.8333333,37.6666672 L46.8333333,40.1666668 C46.8333333,40.626904 46.4602373,41 46,41.0000007 C45.5397627,41 45.1666667,40.626904 45.1666667,40.1666668 L45.1666667,37.6666672 L43.5,37.6666672 L43.5,40.1666668 C43.5,40.626904 43.126904,41 42.6666667,41 C42.2064294,41 41.8333333,40.626904 41.8333333,40.1666668 L41.8333333,37.6666672 L37.6666667,37.6666672 L37.6666667,40.1666668 C37.6666667,40.626904 37.2935706,41 36.8333333,41 C36.373096,41 36,40.626904 36,40.1666668 L36,37.6666672 L34.3333333,37.6666672 L34.3333333,40.1666668 C34.3333333,40.626904 33.9602373,41 33.5,41.0000007 C33.0397627,41 32.6666667,40.626904 32.6666667,40.1666668 L32.6666667,37.6666672 L28.5,37.6666672 L28.5,40.1666668 C28.5,40.626904 28.126904,41 27.6666667,41 C27.2064294,41 26.8333333,40.626904 26.8333333,40.1666668 L26.8333333,37.6666672 L25.1666667,37.6666672 L25.1666667,40.1666668 C25.1666667,40.626904 24.7935706,41 24.3333333,41 C23.873096,41 23.5,40.626904 23.5,40.1666668 L23.5,37.6666672 L19.3333333,37.6666672 L19.3333333,40.1666668 C19.3333333,40.626904 18.9602373,41 18.5,41.0000007 C18.0397627,41 17.6666667,40.626904 17.6666667,40.1666668 L17.6666667,37.6666672 L16,37.6666672 L16,40.1666668 C16,40.626904 15.626904,41 15.1666667,41 C14.7064294,41 14.3333333,40.626904 14.3333333,40.1666668 L14.3333333,37.6666672 L10.1666667,37.6666672 L10.1666667,40.1666668 C10.1666667,40.626904 9.79357062,41 9.33333333,41 C8.87309604,41 8.5,40.626904 8.5,40.1666668 L8.5,37.6666672 L6.83333333,37.6666672 L6.83333333,40.1666668 C6.83333333,40.626904 6.46023729,41 6,41.0000007 C5.53976271,41 5.16666667,40.626904 5.16666667,40.1666668 L5.16666667,37.6666672 L1.83333333,37.6666672 C1.37309604,37.6666672 1,37.2935712 1,36.833334 C1,36.3730967 1.37309604,36.0000007 1.83333333,36.0000007 L50.1666667,36.0000007 Z M7.66666667,21.000003 C7.3609522,20.9984267 7.08064474,20.8295777 6.93632616,20.5600671 C6.79200758,20.2905565 6.80685075,19.9636591 6.975,19.7083365 L10.3083333,14.7083372 C10.5121655,14.4049824 10.8898729,14.2698409 11.2398815,14.3750347 C11.58989,14.4802285 11.8305122,14.8012068 11.8333333,15.1666705 L11.8333333,19.3333365 L14.3333333,19.3333365 C14.6390478,19.3349128 14.9193553,19.5037619 15.0636738,19.7732724 C15.2079924,20.042783 15.1931493,20.3696804 15.025,20.625003 L11.6916667,25.6250023 C11.5383471,25.8578233 11.2787659,25.99856 11,26.0000022 C10.9198724,26.0117448 10.838461,26.0117448 10.7583333,26.0000022 C10.3939309,25.8899593 10.1504136,25.5469772 10.1666667,25.166669 L10.1666667,21.000003 L7.66666667,21.000003 Z M11.8333333,22.4166694 L12.775,21.000003 L11.8333333,21.000003 L11.8333333,22.4166694 Z M10.1666667,17.9166701 L9.225,19.3333365 L10.1666667,19.3333365 L10.1666667,17.9166701 Z" id="Combined-Shape" stroke="#FFFFFF" stroke-width="0.5" fill="#000000" fill-rule="nonzero"></path>
    </g>
</svg>