<?xml version="1.0" encoding="UTF-8"?>
<svg width="52px" height="52px" viewBox="0 0 52 52" version="1.1" xmlns="http://www.w3.org/2000/svg" xmlns:xlink="http://www.w3.org/1999/xlink">
    <!-- Generator: Sketch 54.1 (76490) - https://sketchapp.com -->
    <title>design</title>
    <desc>Created with Sketch.</desc>
    <g id="design" stroke="none" stroke-width="1" fill="none" fill-rule="evenodd">
        <path d="M8.25,7.03092784 L17.25,7.03092784 C13.9166667,9.01030928 11.4166667,12.1443299 10.0833333,15.7731959 L12.75,15.7731959 C14.1666667,12.3092784 17,9.50515464 20.5,8.10309278 L20.5,4.55670103 L8.25,4.55670103 C7.75,3.15463918 6.33333333,2.08247423 4.75,2.08247423 C2.66666667,2.08247423 1,3.73195876 1,5.79381443 C1,7.8556701 2.66666667,9.50515464 4.75,9.50515464 C6.33333333,9.50515464 7.66666667,8.43298969 8.25,7.03092784 Z M4.75,7.03092784 C4.08333333,7.03092784 3.5,6.45360825 3.5,5.79381443 C3.5,5.13402062 4.08333333,4.55670103 4.75,4.55670103 C5.41666667,4.55670103 6,5.13402062 6,5.79381443 C6,6.45360825 5.41666667,7.03092784 4.75,7.03092784 Z M47.25,2.16494845 C45.6666667,2.16494845 44.25,3.15463918 43.75,4.63917526 L31.5,4.63917526 L31.5,8.18556701 C35,9.58762887 37.8333333,12.3917526 39.25,15.8556701 L41.9166667,15.8556701 C40.6666667,12.1443299 38.0833333,9.09278351 34.75,7.11340206 L43.75,7.11340206 C44.25,8.51546392 45.6666667,9.58762887 47.25,9.58762887 C49.3333333,9.58762887 51,7.93814433 51,5.87628866 C51,3.81443299 49.3333333,2.16494845 47.25,2.16494845 Z M47.25,7.03092784 C46.5833333,7.03092784 46,6.45360825 46,5.79381443 C46,5.13402062 46.5833333,4.55670103 47.25,4.55670103 C47.9166667,4.55670103 48.5,5.13402062 48.5,5.79381443 C48.5,6.45360825 47.9166667,7.03092784 47.25,7.03092784 Z M37,31.6082474 C29.5,28.7216495 27.25,14.0412371 27.25,13.8762887 C27.25,13.8762887 27.25,13.8762887 27.25,13.8762887 C27.25,13.7113402 27.1666667,13.628866 27.0833333,13.4639175 C27.0833333,13.4639175 27.0833333,13.4639175 27.0833333,13.3814433 C27,13.2989691 26.9166667,13.1340206 26.8333333,13.0515464 C26.8333333,13.0515464 26.8333333,13.0515464 26.75,13.0515464 C26.6666667,12.9690722 26.5,12.8865979 26.4166667,12.8865979 C26.4166667,12.8865979 26.4166667,12.8865979 26.4166667,12.8865979 C26.25,12.8865979 26.1666667,12.8041237 26,12.8041237 C25.8333333,12.8041237 25.75,12.8041237 25.5833333,12.8865979 C25.5833333,12.8865979 25.5833333,12.8865979 25.5833333,12.8865979 C25.5,12.9690722 25.3333333,12.9690722 25.25,13.0515464 C25.25,13.0515464 25.25,13.0515464 25.1666667,13.0515464 C25.0833333,13.1340206 25,13.2164948 24.9166667,13.3814433 C24.9166667,13.3814433 24.9166667,13.3814433 24.9166667,13.4639175 C24.8333333,13.5463918 24.8333333,13.7113402 24.75,13.7938144 C24.75,13.7938144 24.75,13.7938144 24.75,13.7938144 C24.75,13.9587629 22.5,28.556701 15,31.5257732 C14.6666667,31.6907216 14.3333333,31.9381443 14.25,32.3505155 C14.1666667,32.7628866 14.1666667,33.0927835 14.4166667,33.4226804 C14.5,33.5051546 18.6666667,39.6082474 20.9166667,47.5257732 L18.9166667,47.5257732 C18.25,47.5257732 17.6666667,48.1030928 17.6666667,48.7628866 C17.6666667,49.4226804 18.25,50 18.9166667,50 L29.5,50 C29.5,50 29.5,50 29.5,50 L33.1666667,50 C33.8333333,50 34.4166667,49.4226804 34.4166667,48.7628866 C34.4166667,48.1030928 33.8333333,47.5257732 33.1666667,47.5257732 L31.1666667,47.5257732 C33.4166667,39.6907216 37.5833333,33.5051546 37.6666667,33.4226804 C37.9166667,33.0927835 37.9166667,32.6804124 37.8333333,32.3505155 C37.6666667,32.0206186 37.3333333,31.6907216 37,31.6082474 Z M26,35.8969072 C26.9166667,35.8969072 27.5833333,36.6391753 27.5833333,37.4639175 C27.5833333,38.2886598 26.8333333,39.0309278 26,39.0309278 C25.1666667,39.0309278 24.4166667,38.2886598 24.4166667,37.4639175 C24.4166667,36.6391753 25.0833333,35.8969072 26,35.8969072 Z M28.5,47.5257732 L23.5,47.5257732 C21.75,41.0103093 18.75,35.5670103 17.25,33.257732 C20.8333333,31.1958763 23.1666667,27.1546392 24.75,23.3608247 L24.75,33.6701031 C23.0833333,34.1649485 21.9166667,35.7319588 21.9166667,37.5463918 C21.9166667,39.7731959 23.75,41.5876289 26,41.5876289 C28.25,41.5876289 30.0833333,39.7731959 30.0833333,37.5463918 C30.0833333,35.7319588 28.8333333,34.2474227 27.25,33.6701031 L27.25,23.2783505 C28.75,27.1546392 31.1666667,31.1958763 34.75,33.1752577 C33.3333333,35.5670103 30.25,41.0103093 28.5,47.5257732 Z M23.4166667,9.58762887 L28.5833333,9.58762887 C29.25,9.58762887 29.8333333,9.01030928 29.8333333,8.35051546 L29.8333333,3.2371134 C29.8333333,2.57731959 29.25,2 28.5833333,2 L23.4166667,2 C22.75,2 22.1666667,2.57731959 22.1666667,3.2371134 L22.1666667,8.35051546 C22.1666667,9.09278351 22.75,9.58762887 23.4166667,9.58762887 Z M24.6666667,4.4742268 L27.3333333,4.4742268 L27.3333333,7.11340206 L24.6666667,7.11340206 L24.6666667,4.4742268 Z M14.25,18.742268 C14.25,18.0824742 13.6666667,17.5051546 13,17.5051546 L7.83333333,17.5051546 C7.16666667,17.5051546 6.58333333,18.0824742 6.58333333,18.742268 L6.58333333,23.8556701 C6.58333333,24.5154639 7.16666667,25.0927835 7.83333333,25.0927835 L13,25.0927835 C13.6666667,25.0927835 14.25,24.5154639 14.25,23.8556701 L14.25,18.742268 Z M11.75,22.6185567 L9.08333333,22.6185567 L9.08333333,19.9793814 L11.75,19.9793814 L11.75,22.6185567 Z M44.1666667,17.5051546 L39,17.5051546 C38.3333333,17.5051546 37.75,18.0824742 37.75,18.742268 L37.75,23.8556701 C37.75,24.5154639 38.3333333,25.0927835 39,25.0927835 L44.1666667,25.0927835 C44.8333333,25.0927835 45.4166667,24.5154639 45.4166667,23.8556701 L45.4166667,18.742268 C45.4166667,18 44.9166667,17.5051546 44.1666667,17.5051546 Z M42.9166667,22.6185567 L40.25,22.6185567 L40.25,19.9793814 L42.9166667,19.9793814 L42.9166667,22.6185567 Z" id="Shape" stroke="#FFFFFF" fill="#000000" fill-rule="nonzero"></path>
    </g>
</svg>