<?xml version="1.0" encoding="UTF-8"?>
<svg width="26px" height="26px" viewBox="0 0 26 26" version="1.1" xmlns="http://www.w3.org/2000/svg" xmlns:xlink="http://www.w3.org/1999/xlink">
    <!-- Generator: Sketch 54.1 (76490) - https://sketchapp.com -->
    <title>fb</title>
    <desc>Created with Sketch.</desc>
    <g id="fb" stroke="none" stroke-width="1" fill="none" fill-rule="evenodd">
        <path d="M20.5,1 C21.7395895,1 22.7994748,1.44009977 23.6796875,2.3203125 C24.5599002,3.20052523 25,4.26041047 25,5.5 L25,20.5 C25,21.7395895 24.5599002,22.7994748 23.6796875,23.6796875 C22.7994748,24.5599002 21.7395895,25 20.5,25 L17.5625,25 L17.5625,15.703125 L20.671875,15.703125 L21.140625,12.078125 L17.5625,12.078125 L17.5625,9.765625 C17.5625,9.18228875 17.6848946,8.74479312 17.9296875,8.453125 C18.1744804,8.16145687 18.6510381,8.015625 19.359375,8.015625 L21.265625,8 L21.265625,4.765625 C20.6093717,4.67187453 19.6822977,4.625 18.484375,4.625 C17.0677013,4.625 15.9349001,5.0416625 15.0859375,5.875 C14.2369749,6.7083375 13.8125,7.88540906 13.8125,9.40625 L13.8125,12.078125 L10.6875,12.078125 L10.6875,15.703125 L13.8125,15.703125 L13.8125,25 L5.5,25 C4.26041047,25 3.20052523,24.5599002 2.3203125,23.6796875 C1.44009977,22.7994748 1,21.7395895 1,20.5 L1,5.5 C1,4.26041047 1.44009977,3.20052523 2.3203125,2.3203125 C3.20052523,1.44009977 4.26041047,1 5.5,1 L20.5,1 Z" id="" fill="#FFFFFF" fill-rule="nonzero"></path>
    </g>
</svg>