<?xml version="1.0" encoding="UTF-8"?>
<svg width="26px" height="26px" viewBox="0 0 26 26" version="1.1" xmlns="http://www.w3.org/2000/svg" xmlns:xlink="http://www.w3.org/1999/xlink">
    <!-- Generator: Sketch 54.1 (76490) - https://sketchapp.com -->
    <title>linkedin</title>
    <desc>Created with Sketch.</desc>
    <g id="linkedin" stroke="none" stroke-width="1" fill="none" fill-rule="evenodd">
        <path d="M4.703125,21.09375 L8.3125,21.09375 L8.3125,10.25 L4.703125,10.25 L4.703125,21.09375 Z M8.546875,6.90625 C8.53645828,6.36458062 8.34896016,5.91666844 7.984375,5.5625 C7.61978984,5.20833156 7.13541969,5.03125 6.53125,5.03125 C5.92708031,5.03125 5.43489773,5.20833156 5.0546875,5.5625 C4.67447727,5.91666844 4.484375,6.36458062 4.484375,6.90625 C4.484375,7.43750266 4.66926898,7.8828107 5.0390625,8.2421875 C5.40885602,8.6015643 5.89062203,8.78125 6.484375,8.78125 L6.5,8.78125 C7.11458641,8.78125 7.60937313,8.6015643 7.984375,8.2421875 C8.35937688,7.8828107 8.546875,7.43750266 8.546875,6.90625 Z M13.90625,11.778671 L13.90625,10.25 L10.296875,10.25 C10.3281252,10.9375034 10.3281252,14.5520506 10.296875,21.09375 L13.90625,21.09375 L13.90625,15.03125 C13.90625,14.6354147 13.942708,14.3437509 14.015625,14.15625 C14.1718758,13.7916648 14.4062484,13.4817721 14.71875,13.2265625 C15.0312516,12.9713529 15.4166644,12.84375 15.875,12.84375 C17.0833394,12.84375 17.6875,13.6614502 17.6875,15.296875 L17.6875,21.09375 L21.296875,21.09375 L21.296875,14.875 C21.296875,13.2708253 20.9166705,12.0572958 20.15625,11.234375 C19.3958295,10.4114542 18.3906313,10 17.140625,10 C15.7432443,10 14.6651297,10.5928845 13.90625,11.778671 L13.90625,11.778671 Z M25,5.5 L25,20.5 C25,21.7395895 24.5599002,22.7994748 23.6796875,23.6796875 C22.7994748,24.5599002 21.7395895,25 20.5,25 L5.5,25 C4.26041047,25 3.20052523,24.5599002 2.3203125,23.6796875 C1.44009977,22.7994748 1,21.7395895 1,20.5 L1,5.5 C1,4.26041047 1.44009977,3.20052523 2.3203125,2.3203125 C3.20052523,1.44009977 4.26041047,1 5.5,1 L20.5,1 C21.7395895,1 22.7994748,1.44009977 23.6796875,2.3203125 C24.5599002,3.20052523 25,4.26041047 25,5.5 Z" id="" fill="#FFFFFF" fill-rule="nonzero"></path>
    </g>
</svg>