<?xml version="1.0" encoding="UTF-8"?>
<svg width="38px" height="42px" viewBox="0 0 38 42" version="1.1" xmlns="http://www.w3.org/2000/svg" xmlns:xlink="http://www.w3.org/1999/xlink">
    <!-- Generator: Sketch 54.1 (76490) - https://sketchapp.com -->
    <title>kodelounge-logo-icon</title>
    <desc>Created with Sketch.</desc>
    <g id="kodelounge-logo-icon" stroke="none" stroke-width="1" fill="none" fill-rule="evenodd">
        <path d="M32.96584,28.1882467 L29.77768,28.1882467 L29.77768,26.5053325 L31.26376,26.5053325 L31.26376,20.4343123 L29.77768,20.4343123 L29.77768,18.7521101 L32.96584,18.7521101 L32.96584,28.1882467 Z M28.18432,18.1284922 L26.48224,18.1284922 L26.48224,14.7833088 L11.42632,14.7833088 L11.42632,18.1284922 L9.72424,18.1284922 L9.72424,13.1003947 L28.18432,13.1003947 L28.18432,18.1284922 Z M28.18432,24.0300819 L19.774,24.0300819 L19.774,25.0616143 L18.0712,25.0616143 L18.0712,24.0300819 L9.72424,24.0300819 L9.72424,20.7525283 L11.42632,20.7525283 L11.42632,22.3471678 L26.48224,22.3471678 L26.48224,20.7525283 L28.18432,20.7525283 L28.18432,24.0300819 Z M10.19872,28.1569234 L27.71056,28.1569234 L27.71056,26.4740092 L10.19872,26.4740092 L10.19872,28.1569234 Z M8.22232,20.4343123 L6.73624,20.4343123 L6.73624,26.5053325 L8.22232,26.5053325 L8.22232,28.1882467 L5.03416,28.1882467 L5.03416,18.7521101 L8.22232,18.7521101 L8.22232,20.4343123 Z M35.2,9.69754797 L20.8,1.477324 C19.68616,0.840892001 18.31384,0.840892001 17.2,1.477324 L2.8,9.69754797 C1.68616,10.3332681 1,11.5086028 1,12.780043 L1,29.2204909 C1,30.4919311 1.68616,31.6672658 2.8,32.3029859 L17.2,40.5232099 C18.31384,41.15893 19.68616,41.15893 20.8,40.5232099 L35.2,32.3029859 C36.31384,31.6672658 37,30.4919311 37,29.2204909 L37,12.780043 C37,11.5086028 36.31384,10.3332681 35.2,9.69754797 L35.2,9.69754797 Z" id="Fill-1" fill="#2CC9A6"></path>
    </g>
</svg>