<?xml version="1.0" encoding="UTF-8"?>
<svg width="236px" height="42px" viewBox="0 0 236 42" version="1.1" xmlns="http://www.w3.org/2000/svg" xmlns:xlink="http://www.w3.org/1999/xlink">
    <!-- Generator: Sketch 54.1 (76490) - https://sketchapp.com -->
    <title>luciditydirect-logo</title>
    <desc>Created with Sketch.</desc>
    <defs>
        <polygon id="path-1" points="7.52088857e-05 0.384262295 27.3614462 0.384262295 27.3614462 39.3442623 7.52088857e-05 39.3442623"></polygon>
    </defs>
    <g id="luciditydirect-logo" stroke="none" stroke-width="1" fill="none" fill-rule="evenodd">
        <g id="Group-36-Copy" transform="translate(2.000000, 1.000000)">
            <g id="Group-3" transform="translate(0.000000, 0.271738)">
                <mask id="mask-2" fill="white">
                    <use xlink:href="#path-1"></use>
                </mask>
                <g id="Clip-2"></g>
                <path d="M25.8645181,18.9436721 C26.3311782,19.1443279 26.5476768,19.6833443 26.3476796,20.1476066 C26.1463623,20.6144918 25.6031357,20.8308852 25.1338354,20.631541 L22.5833765,19.5476066 L22.5807363,19.5456393 C22.1127561,19.3456393 21.8962575,18.8072787 22.0969147,18.3417049 C22.298232,17.8754754 22.8414586,17.6597377 23.311419,17.859082 L25.8612178,18.9430164 C25.8618779,18.9430164 25.8638581,18.9436721 25.8645181,18.9436721 L25.8645181,18.9436721 Z M23.4500309,11.0551475 C23.2196711,10.9561311 23.032215,10.7659672 22.9431074,10.5128525 C22.775453,10.0335082 23.031555,9.51022951 23.5127363,9.34367213 L26.1338212,8.44137705 C26.6163227,8.27481967 27.1423878,8.52793443 27.3100422,9.00793443 C27.4776966,9.48727869 27.2215946,10.0099016 26.7404133,10.1758033 L24.1193283,11.0794098 C23.8922688,11.1580984 23.6539884,11.1430164 23.4500309,11.0551475 L23.4500309,11.0551475 Z M3.83644731,9.49514754 C4.30442748,9.69777049 4.51828584,10.2387541 4.31432833,10.7043279 C4.10971076,11.1679344 3.56714419,11.3803934 3.09916402,11.179082 C3.09850397,11.179082 3.09718385,11.1784262 3.0965238,11.1777705 L0.554645609,10.0748197 C0.0866654391,9.87285246 -0.126532861,9.33055738 0.0774246459,8.86563934 C0.28204221,8.40203279 0.824608782,8.19022951 1.2919289,8.39022951 L1.29456912,8.39219672 L3.83644731,9.49514754 Z M9.30567677,4.65580328 C9.06013569,4.76465574 8.79017252,4.76006557 8.5604728,4.66104918 C8.3565153,4.57252459 8.1829204,4.41121311 8.08457195,4.19285246 L6.95059462,1.67744262 C6.74201671,1.2144918 6.95125467,0.670885246 7.41725467,0.464327869 C7.88325467,0.256459016 8.42978159,0.464983607 8.63835949,0.927934426 L9.77233683,3.44268852 C9.97959462,3.90498361 9.77167677,4.44859016 9.30567677,4.65580328 L9.30567677,4.65580328 Z M17.2586994,5.10563934 C16.7900592,4.90432787 16.5742207,4.36334426 16.7768581,3.89777049 L17.8771725,1.36793443 C18.08047,0.902360656 18.6236966,0.688590164 19.0929969,0.889901639 C19.5616371,1.09186885 19.7774756,1.63219672 19.5748382,2.09777049 L18.4738637,4.62695082 C18.2718864,5.09252459 17.7266796,5.30695082 17.2586994,5.10563934 L17.2586994,5.10563934 Z M18.372215,29.9102295 C18.8817788,30.1285902 19.4758297,29.8944918 19.6962887,29.3882623 C19.9160875,28.8820328 19.6804473,28.2925246 19.1708836,28.0741639 C18.6613198,27.8551475 18.0679289,28.0885902 17.84747,28.5948197 C17.6276711,29.1010492 17.8626513,29.6918689 18.372215,29.9102295 L18.372215,29.9102295 Z M19.9055266,26.3882623 C21.3503907,27.0085902 22.0177079,28.6820328 21.3926343,30.1174426 C20.9140932,31.2177705 19.8131187,31.8617049 18.675181,31.8243279 L16.9022688,35.8971148 C16.8686059,35.9777705 15.9636683,38.0636721 13.7386173,38.9521967 C12.2053057,39.564 10.462096,39.4597377 8.55783258,38.6420328 C6.58030283,37.7928525 5.3030932,36.5784262 4.76118669,35.0335082 C4.04304504,32.9836721 4.91894023,31.099082 5.07669377,30.7856393 L6.02783541,28.6000656 C6.2304728,28.1344918 6.77435949,27.9200656 7.24299972,28.1207213 C7.71163994,28.3226885 7.92681841,28.8623607 7.72550113,29.3292459 L6.76181841,31.5410492 C6.75191756,31.5659672 6.7406966,31.5882623 6.72749547,31.6118689 C6.72287507,31.6210492 6.00407337,33.0184262 6.51363711,34.4459672 C6.88260878,35.4780984 7.81658895,36.3226885 9.29115552,36.9554754 C13.491096,38.7594098 15.0422292,35.5436721 15.2046031,35.1712131 L16.9445125,31.1712131 C15.9979912,30.3856393 15.6369402,29.046623 16.1511244,27.8662951 C16.775538,26.4302295 18.4600025,25.766623 19.9055266,26.3882623 L19.9055266,26.3882623 Z M18.3286513,12.3692459 C17.3616683,11.9541639 16.9148099,10.8335082 17.3326258,9.87285246 C17.7511017,8.91285246 18.8778184,8.46891803 19.8441414,8.884 C20.8078241,9.29777049 21.2546824,10.4112131 20.8441272,11.3692459 C21.5371867,12.3587541 22.5325521,14.4525246 21.3140875,17.2538361 C20.2038722,19.8053115 18.2065408,20.8387541 16.6032632,21.668918 C15.4197816,22.2807213 14.4851414,22.7646557 14.0943878,23.659082 L13.9524756,23.9856393 C13.7504983,24.4512131 13.2059516,24.6662951 12.7379714,24.4643279 C12.2693312,24.2630164 12.0534926,23.7233443 12.25613,23.2577705 L12.3973822,22.9305574 C13.048198,21.4361311 14.4204558,20.7259672 15.7484898,20.0387541 C17.2329572,19.2708852 18.767589,18.4767869 19.6177419,16.5246557 C20.4546938,14.6007213 19.8322603,13.179082 19.3840819,12.499082 C19.0375521,12.5541639 18.6738609,12.5167869 18.3286513,12.3692459 L18.3286513,12.3692459 Z M9.35056062,27.8505574 L7.92879858,27.2394098 L5.87140198,26.3561311 C5.12157762,26.0341639 4.79550963,25.5135082 4.65293739,25.1318689 C4.3011272,24.1843279 4.74666544,23.228918 4.79814986,23.1233443 C5.02256912,22.6669508 5.57503654,22.4721967 6.03509603,22.7003934 C6.49119518,22.921377 6.68195156,23.4656393 6.46413286,23.9207213 C6.39614703,24.068918 6.33212153,24.3508852 6.38822635,24.496459 C6.39746714,24.5207213 6.42584958,24.5928525 6.60538499,24.6702295 L8.66278159,25.5535082 L10.0845436,26.164 L10.2753,26.246623 C10.4693567,26.3299016 10.62513,26.348918 10.7366796,26.3023607 C10.9320564,26.2203934 11.0739686,25.9495738 11.0891499,25.9108852 C11.2726456,25.4374426 11.8066314,25.2020328 12.2838524,25.3830164 C12.7584331,25.5633443 12.9980337,26.0977705 12.815198,26.5699016 C12.7749346,26.6748197 12.3914416,27.6033443 11.452181,27.9961311 C11.044266,28.1659672 10.3815691,28.2931803 9.54197705,27.9325246 L9.35056062,27.8505574 Z M5.9123255,20.5325246 L6.05489773,20.2059672 C6.44301105,19.3108852 6.15786657,18.3036721 5.79615552,17.0276066 C5.30639348,15.2971148 4.69518102,13.1449836 5.80605637,10.5928525 C7.04762295,7.74104918 9.32283824,7.0544918 10.5076399,6.89318033 C10.939317,5.96137705 12.046232,5.53514754 12.9986938,5.94432787 C13.9669969,6.35940984 14.4125351,7.4787541 13.9953793,8.44006557 C13.5762433,9.40072131 12.4495266,9.84465574 11.4825436,9.42891803 C11.1274331,9.27678689 10.8422887,9.02760656 10.6449317,8.72793443 C9.84626317,8.86104918 8.35057479,9.37252459 7.50240198,11.3220328 C6.65356912,13.2741639 7.12220935,14.9292459 7.57632833,16.5292459 C7.98160312,17.9600656 8.40205921,19.441377 7.75124334,20.9351475 L7.6086711,21.2617049 C7.40735382,21.7272787 6.86280708,21.9417049 6.39416686,21.7403934 C5.92552663,21.539082 5.7096881,20.9980984 5.9123255,20.5325246 L5.9123255,20.5325246 Z" id="Fill-1" fill="#1D97F7" mask="url(#mask-2)"></path>
            </g>
            <polygon id="Fill-4" fill="#0067C2" points="36.4266788 10.043082 32.3693105 10.043082 32.3673303 32.230623 46.0819875 32.2319344 46.0819875 28.763082 36.4246986 28.7617705"></polygon>
            <path d="M59.4538773,23.608 C59.4538773,26.4519344 57.8492796,28.983082 54.9555912,28.9824262 C52.9734411,28.9824262 52.4704779,27.6696393 52.4704779,25.7325902 L52.471138,16.2945574 L48.4764751,16.2945574 L48.475155,26.5450492 C48.475155,30.8886557 50.6137385,32.6066885 54.0427329,32.6073443 C56.7793278,32.6073443 58.8241833,30.9516066 59.6109708,29.2952131 L59.6736762,29.2952131 C59.6736762,29.2952131 59.6109708,29.7961967 59.6109708,30.4211148 L59.6103108,32.232918 L63.4478802,32.2335738 L63.4498603,16.2958689 L59.4545374,16.2952131 L59.4538773,23.608 Z" id="Fill-6" fill="#0067C2"></path>
            <path d="M75.7506762,29.2342951 C72.6992343,29.2342951 70.7494269,26.9215082 70.7494269,24.2342951 C70.750087,21.5149508 72.6688717,19.2965902 75.6259255,19.2965902 C78.1427215,19.2965902 79.8093646,21.0159344 79.8093646,21.0159344 L81.5710558,18.2972459 C81.5710558,18.2972459 79.5895657,15.9215082 75.4061266,15.9215082 C70.0900303,15.9208525 66.6920586,19.7339672 66.6913986,24.2651148 C66.6913986,28.8900328 70.0880501,32.6087213 75.4041465,32.6087213 C79.7136564,32.609377 82.0099935,30.0159344 82.0099935,30.0159344 L80.4694212,27.2041311 C80.4694212,27.2041311 78.4562484,29.2342951 75.7506762,29.2342951" id="Fill-8" fill="#0067C2"></path>
            <polygon id="Fill-10" fill="#0067C2" points="88.9675847 10.0481967 85.0039445 10.047541 85.0032844 13.5786885 88.9669246 13.5793443"></polygon>
            <polygon id="Fill-12" fill="#0067C2" points="85.0014363 32.2354098 88.9967592 32.2354098 88.9980793 16.2983607 85.0027564 16.2977049"></polygon>
            <path d="M100.322275,29.2676066 C97.9632329,29.2676066 96.3276125,27.2984262 96.3282725,24.2676066 C96.3282725,21.111541 98.1526691,19.3299016 100.354618,19.3299016 C103.028508,19.3305574 104.349941,21.7685902 104.349281,24.2374426 C104.349281,27.7685902 102.398814,29.2676066 100.322275,29.2676066 L100.322275,29.2676066 Z M104.22387,17.0499016 C104.22387,17.5495738 104.255553,17.9554754 104.255553,17.9554754 L104.192188,17.9554754 C104.192188,17.9554754 103.091873,15.924 99.5684907,15.9233443 C95.3223462,15.9233443 92.3019269,19.2046557 92.3012669,24.2676066 C92.3012669,29.2053115 95.0688844,32.6112131 99.4100771,32.6118689 C103.090553,32.6118689 104.443009,29.8938361 104.443009,29.8938361 L104.505714,29.8938361 C104.505714,29.8938361 104.443009,30.3312131 104.443009,30.9246557 L104.443009,32.2374426 L108.217213,32.2374426 L108.219193,10.0499016 L104.22453,10.0492459 L104.22387,17.0499016 Z" id="Fill-14" fill="#0067C2"></path>
            <polygon id="Fill-16" fill="#0067C2" points="116.590362 10.0507541 112.626722 10.0507541 112.626061 13.5812459 116.590362 13.5819016"></polygon>
            <polygon id="Fill-18" fill="#0067C2" points="112.624543 32.2379672 116.619866 32.2379672 116.621186 16.300918 112.625863 16.3002623"></polygon>
            <path d="M125.712543,25.8957377 L125.713203,19.707541 L129.362656,19.7081967 L129.362656,16.5521311 L125.713203,16.5514754 L125.713863,11.9580328 L121.813588,11.957377 L121.812928,16.5514754 L119.642002,16.5514754 L119.642002,19.707541 L121.71788,19.707541 L121.71722,26.3954098 C121.71722,31.7390164 126.152141,32.3960656 128.385772,32.3960656 C129.140877,32.3960656 129.612158,32.3022951 129.612158,32.3022951 L129.612818,28.8334426 C129.612818,28.8334426 129.329653,28.8957377 128.888735,28.8957377 C127.788421,28.8957377 125.712543,28.5206557 125.712543,25.8957377" id="Fill-20" fill="#0067C2"></path>
            <path d="M139.492216,25.5527869 C139.209711,26.3967213 138.95757,27.6465574 138.95757,27.6465574 L138.894864,27.6465574 C138.894864,27.6465574 138.6117,26.3344262 138.296853,25.4904918 L134.932544,16.3022951 L130.434258,16.3022951 L137.195878,31.9901639 L136.597207,33.3960656 C135.999856,34.802623 134.930564,35.4583607 133.82959,35.4583607 C132.917391,35.4583607 132.036216,34.8019672 132.036216,34.8019672 L130.714782,37.7711475 C130.714782,37.7711475 132.130604,38.802623 134.048728,38.802623 C136.471796,38.802623 138.704768,37.5527869 139.838085,34.6465574 L147.011581,16.3036066 L142.638706,16.3036066 L139.492216,25.5527869 Z" id="Fill-22" fill="#0067C2"></path>
            <path d="M158.974184,28.6589508 C157.639549,30.0622295 155.77819,30.8353443 153.731354,30.8353443 L153.730694,30.8353443 L151.110929,30.8346885 L153.437629,18.9730492 L156.209867,18.9737049 C157.709515,18.9737049 158.936561,19.3553443 159.757671,20.076 C160.597263,20.8137049 161.023,21.8858361 161.023,23.2641967 C161.023,25.353377 160.294957,27.2694426 158.974184,28.6589508 M161.988663,18.0687869 C160.655348,16.913377 158.714122,16.3028852 156.374881,16.3028852 L150.958456,16.3022295 L147.596787,33.5068197 L153.895048,33.5074754 L153.895708,33.5074754 C159.692986,33.5074754 164.065201,29.0228852 164.065861,23.0766557 C164.065861,20.9776393 163.347719,19.2458361 161.988663,18.0687869" id="Fill-24" fill="#0067C2"></path>
            <polygon id="Fill-26" fill="#0067C2" points="165.009808 33.5064918 168.019006 33.5064918 171.381335 16.3025574 168.396559 16.3019016"></polygon>
            <path d="M181.952076,23.3304262 C181.336903,23.9225574 180.491371,24.248459 179.569272,24.248459 L179.568612,24.248459 L176.688784,24.2478033 L177.717153,18.9730492 L180.796977,18.9737049 C182.160654,18.9737049 182.943481,19.6576393 182.943481,20.8497705 C182.943481,21.848459 182.600252,22.7061639 181.952076,23.3304262 M186.010105,20.5219016 C186.010105,18.8058361 185.166552,17.433377 183.696606,16.756 C183.037869,16.451082 182.220059,16.3028852 181.197631,16.3028852 L175.263062,16.3022295 L171.875651,33.5068197 L174.88485,33.5068197 L176.160079,26.9199344 L179.286107,26.9205902 L181.573864,33.5074754 L184.756657,33.5074754 L182.284745,26.6687869 C182.212799,26.4707541 182.150093,26.3120656 182.099929,26.1900984 C184.418708,25.3756721 186.009444,23.0956721 186.010105,20.5219016" id="Fill-28" fill="#0067C2"></path>
            <polygon id="Fill-30" fill="#0067C2" points="186.929629 33.5062295 197.704394 33.5068852 198.204717 30.8354098 190.468193 30.8347541 191.379071 26.1698361 197.347964 26.1698361 197.879309 23.4983607 191.908437 23.4977049 192.795553 18.9731148 200.132743 18.9737705 200.664748 16.3029508 190.340802 16.3022951"></polygon>
            <path d="M210.952722,16.3020328 L210.952061,16.3020328 C208.360019,16.3020328 205.764676,17.4049836 203.83137,19.3276066 C201.84988,21.2994098 200.758807,23.8705574 200.758807,26.5682623 C200.758146,28.7374426 201.470348,30.599082 202.818183,31.9505574 C204.200342,33.3367869 206.147509,34.0699016 208.449787,34.0699016 L208.449787,34.0699016 C212.44643,34.0692459 215.229889,31.6521967 215.346719,31.5492459 L215.544076,31.3754754 L214.203501,28.9597377 L213.894594,29.2299016 C213.871492,29.2508852 211.523671,31.2803934 208.568597,31.2803934 L208.567937,31.2803934 C207.124393,31.2803934 205.914509,30.8043279 205.068976,29.9046557 C204.255127,29.0377705 203.82477,27.8436721 203.82477,26.4508852 C203.82543,22.4607213 207.121753,19.0902295 211.022688,19.0902295 C213.762583,19.0908852 215.324937,20.6410492 215.340118,20.6567869 L215.59094,20.9105574 L217.400815,18.8403934 L217.22392,18.626623 C217.146033,18.531541 215.258271,16.3020328 210.952722,16.3020328" id="Fill-32" fill="#0067C2"></path>
            <polygon id="Fill-34" fill="#0067C2" points="218.488588 16.3020328 217.987605 18.9728525 223.694455 18.9735082 220.83773 33.506623 223.846268 33.5072787 226.679892 18.9735082 232.415124 18.9741639 232.915447 16.3033443"></polygon>
        </g>
    </g>
</svg>