<?xml version="1.0" encoding="UTF-8"?>
<svg width="52px" height="52px" viewBox="0 0 52 52" version="1.1" xmlns="http://www.w3.org/2000/svg" xmlns:xlink="http://www.w3.org/1999/xlink">
    <!-- Generator: Sketch 54.1 (76490) - https://sketchapp.com -->
    <title>pace</title>
    <desc>Created with Sketch.</desc>
    <g id="pace" stroke="none" stroke-width="1" fill="none" fill-rule="evenodd">
        <path d="M26,6 C12.2126239,6 1,17.2125809 1,31 C1,36.3652155 2.94153389,41.2802978 5.73958333,45.2881858 C6.05252433,45.735835 6.56492539,46.0017646 7.11111111,45.9999912 L44.8888889,45.9999912 C45.4350746,46.0017646 45.9474757,45.735835 46.2604167,45.2881858 C49.0596672,41.2797422 51,36.3659933 51,31 C51,17.2125809 39.7873761,6 26,6 Z M24.3333333,9.40277703 L24.3333333,12.1111098 C24.3248329,12.7121695 24.6406255,13.2712451 25.1597881,13.5742556 C25.6789507,13.8772662 26.3210493,13.8772662 26.8402119,13.5742556 C27.3593745,13.2712451 27.6751671,12.7121695 27.6666667,12.1111098 L27.6666667,9.40277703 C32.4008778,9.76166139 36.7050689,11.6357588 40.0972222,14.5416648 L37.5972222,17.0416642 C37.1325197,17.4535206 36.9352766,18.0895475 37.0854016,18.6920726 C37.2355267,19.2945978 37.70813,19.7637259 38.3117467,19.9094002 C38.9153635,20.0550745 39.5499175,19.853143 39.9583333,19.3854137 L42.4409722,16.9027754 C45.3510944,20.2946163 47.23613,24.5969631 47.5972222,29.3333282 L44.8888889,29.3333282 C44.287829,29.3248277 43.7287533,29.6406203 43.4257427,30.1597828 C43.1227321,30.6789452 43.1227321,31.3210437 43.4257427,31.8402062 C43.7287533,32.3593687 44.287829,32.6751613 44.8888889,32.6666608 L47.5972222,32.6666608 C47.4218139,34.6188098 46.9288822,36.4905805 46.2256944,38.2742984 C42.1308783,35.791669 37.1025817,33.8596877 31.5555556,33.0659663 C31.5145794,31.4152761 30.7345678,29.9415164 29.5416667,28.9513838 L34.2465278,14.8541647 C34.4262882,14.3455221 34.3487631,13.7813323 34.0384707,13.3400277 C33.7281783,12.898723 33.2234929,12.6348802 32.6840278,12.631943 C32.6261967,12.6289272 32.5682477,12.6289272 32.5104167,12.631943 C31.8456274,12.6992812 31.2852998,13.1571097 31.0868056,13.7951372 L26.4513889,27.7013841 C26.3039917,27.6895174 26.1502639,27.6666619 26,27.6666619 C22.9975111,27.6666619 20.5185539,30.0805386 20.4444444,33.0659663 C14.8974172,33.8596877 9.86912,35.791669 5.77430556,38.2742984 C5.07107611,36.4903761 4.57825611,34.618492 4.40277778,32.6666608 L7.11111111,32.6666608 C7.71217097,32.6751613 8.27124672,32.3593687 8.57425731,31.8402062 C8.87726791,31.3210437 8.87726791,30.6789452 8.57425731,30.1597828 C8.27124672,29.6406203 7.71217097,29.3248277 7.11111111,29.3333282 L4.40277778,29.3333282 C4.76387,24.5969631 6.64890556,20.2946163 9.55902778,16.9027754 L12.0416667,19.3854137 C12.4500825,19.853143 13.0846365,20.0550745 13.6882533,19.9094002 C14.29187,19.7637259 14.7644733,19.2945978 14.9145984,18.6920726 C15.0647234,18.0895475 14.8674803,17.4535206 14.4027778,17.0416642 L11.9027778,14.5416648 C15.2949311,11.6357588 19.5991222,9.76166139 24.3333333,9.40277703 Z M26,30.9999945 C27.0851744,30.9999945 27.9601528,31.7260677 28.1701389,32.7361052 C27.4532267,32.6962708 26.7300306,32.6666608 26,32.6666608 C25.2699689,32.6666608 24.5467733,32.6962708 23.8298611,32.7361052 C24.0398472,31.7260677 24.9148256,30.9999945 26,30.9999945 Z M26,35.9999934 C33.2226106,35.9999934 39.8345744,38.2248457 44.7847222,41.2951311 C44.5196761,41.7623949 44.2433789,42.2185981 43.9513889,42.6666586 L8.04861111,42.6666586 C7.75671556,42.2186126 7.48027389,41.7624243 7.21527778,41.2951311 C12.1654278,38.2248457 18.7773928,35.9999934 26,35.9999934 Z" id="Shape" stroke="#FFFFFF" stroke-width="2" fill="#000000" fill-rule="nonzero"></path>
    </g>
</svg>