<?xml version="1.0" encoding="UTF-8"?>
<svg width="52px" height="52px" viewBox="0 0 52 52" version="1.1" xmlns="http://www.w3.org/2000/svg" xmlns:xlink="http://www.w3.org/1999/xlink">
    <!-- Generator: Sketch 54.1 (76490) - https://sketchapp.com -->
    <title>partnership</title>
    <desc>Created with Sketch.</desc>
    <g id="partnership" stroke="none" stroke-width="1" fill="none" fill-rule="evenodd">
        <g id="Group-18" transform="translate(1.000000, 5.000000)" fill="#000000" fill-rule="nonzero">
            <path d="M49.9647177,8.93555024 L41.0001008,-2.27373675e-13 L29.0998992,11.8615837 L29.0998992,11.8615837 L28.6498992,12.3100191 L25.8707661,12.9085694 C25.7160282,12.9419282 25.5596774,12.9749856 25.4025202,13.008244 C24.4805444,13.2033732 23.5002016,13.4111627 22.5684476,13.7306842 L20.9208669,12.9379091 L20.3852823,12.404067 L20.8649194,11.9259904 L8.96461694,0.0646076555 L-1.70530257e-13,9.00005742 L11.9002016,20.8616411 L12.3798387,20.3835646 L12.9028226,20.9048469 L13.6193548,23.8037512 C13.9132056,24.9926124 14.377621,26.1236986 14.9909274,27.1654593 L14.2516129,27.9023684 C13.8091734,28.3434689 13.5587702,28.9245359 13.5462702,29.5388612 C13.5335685,30.1625311 13.7667339,30.7452057 14.2025202,31.1794737 C14.6,31.5755598 15.1128024,31.7890766 15.6407258,31.8254498 C15.5455645,32.0757416 15.490625,32.3410048 15.4850806,32.6136029 C15.472379,33.2372727 15.7054435,33.8199474 16.1412298,34.2542153 C16.5790323,34.6904928 17.1563508,34.9077273 17.7399194,34.9077273 C17.9455645,34.9075263 18.1516129,34.878488 18.3529234,34.8247321 C18.3540323,35.4286077 18.5853831,35.9908852 19.0089718,36.4132967 C19.4466734,36.8496746 20.0240927,37.0667081 20.6076613,37.0667081 C20.8431452,37.0667081 21.0792339,37.0304354 21.3077621,36.959799 C21.3475806,37.4800766 21.5628024,37.9844785 21.9561492,38.3766459 C22.3938508,38.8129234 22.9712702,39.0300574 23.5547379,39.0299569 C24.1615927,39.0299569 24.7748992,38.7950383 25.2440524,38.3276124 L25.5978831,37.974933 C25.8398185,38.0573254 26.0921371,38.101134 26.3448589,38.101134 C26.9308468,38.1010335 27.5154234,37.8796794 27.9599798,37.4367703 C28.2360887,37.1614593 28.4259073,36.8320909 28.5304435,36.4824258 L28.7271169,36.6786603 C29.1784274,37.1283014 29.7705645,37.3533732 30.3611895,37.3533732 C30.9471774,37.3533732 31.5315524,37.1320191 31.9762097,36.6889091 C32.255746,36.4102823 32.4523185,36.0714689 32.5568548,35.7020096 C32.9590726,35.9950048 33.434375,36.1441148 33.9107863,36.1441148 C34.4967742,36.1439139 35.0826613,35.9219569 35.5282258,35.4778421 C35.9611895,35.046488 36.1987903,34.4722536 36.1977823,33.8611435 C36.1965726,33.2510383 35.9571573,32.6770048 35.5235887,32.2450478 L35.440625,32.1622536 C35.7947581,32.0519282 36.1203629,31.8566986 36.3912298,31.5867129 C36.821371,31.1580718 37.0633065,30.5922775 37.0729839,29.9931244 C37.0827621,29.3869378 36.8537298,28.8194354 36.4279234,28.3949139 L35.4645161,27.4385598 C36.0162298,26.4571866 36.4414315,25.4103014 36.7267137,24.3219187 L37.5040323,21.3563971 L38.0648185,20.7974354 L38.0648185,20.7974354 L49.9647177,8.93555024 Z M33.3269153,9.35344019 L35.1225806,11.1434641 L35.9778226,10.2909043 L34.1820565,8.50098086 L41.0001008,1.7052201 L48.2539315,8.93555024 L41.4359879,15.731311 L37.3148185,11.6235502 L36.4596774,12.47611 L40.580746,16.5837703 L38.0645161,19.0918134 L30.8105847,11.8615837 L33.3269153,9.35344019 Z M9.38397177,16.648378 L11.1797379,14.8584545 L10.3243952,14.0058947 L8.52862903,15.7958182 L1.71078629,9.00005742 L8.96461694,1.76982775 L15.7825605,8.56558852 L11.6614919,12.6731483 L12.5168347,13.5257081 L16.6379032,9.41814833 L19.1541331,11.9260909 L11.9002016,19.1564211 L9.38397177,16.648378 Z M14.7556452,29.5630766 C14.7617944,29.2616411 14.8865927,28.9745742 15.1069556,28.7548278 L15.6678427,28.1957656 C16.0488911,28.7174498 16.4695565,29.211201 16.9298387,29.6700861 L17.0873992,29.827134 L16.6350806,30.2777799 C16.1866935,30.7248086 15.4792339,30.7468134 15.0578629,30.3268134 C14.8570565,30.1267608 14.7496976,29.8554689 14.7556452,29.5630766 Z M16.9964718,33.4014545 C16.7957661,33.2013014 16.6883065,32.93011 16.6943548,32.6375167 C16.700504,32.3360813 16.8252016,32.0491148 17.0456653,31.8291675 L18.0709677,30.8073014 L19.6459677,32.3770766 L18.5938508,33.3331292 L18.5735887,33.3522201 C18.1254032,33.7992488 17.4178427,33.8213541 16.9964718,33.4014545 Z M19.8643145,35.5604354 C19.6635081,35.3602823 19.5561492,35.0891914 19.5620968,34.7966986 C19.568246,34.4951627 19.6930444,34.2082967 19.9134073,33.9884498 L20.5879032,33.3161483 L22.1158266,34.839201 L21.4413306,35.5113014 C20.9929435,35.9584306 20.2854839,35.980134 19.8643145,35.5604354 Z M22.8114919,37.5235837 C22.3902218,37.1036842 22.4122984,36.3984258 22.8606855,35.9514976 L23.0462702,35.7664163 L24.5742944,37.2894689 L24.3886089,37.4745502 C23.9402218,37.9214785 23.2327621,37.9433828 22.8114919,37.5235837 Z M35.8632056,29.9734306 C35.8586694,30.2575837 35.7425403,30.5276699 35.5357863,30.7334498 C35.3291331,30.9395311 35.0583669,31.0552823 34.7731855,31.0598038 C34.4948589,31.0653301 34.2367944,30.9614354 34.0451613,30.7707273 L27.7384073,24.4843923 L26.8832661,25.3370526 L27.5027218,25.9544928 L27.5027218,25.9544928 L30.0366935,28.4802201 L33.1900202,31.6232871 C33.1902218,31.623488 33.1904234,31.623689 33.190625,31.62389 L34.6685484,33.0970048 C34.8741935,33.3019809 34.9877016,33.5739761 34.9883065,33.8629522 C34.9888105,34.1509234 34.8770161,34.4216124 34.6731855,34.6246794 C34.2518145,35.0444785 33.5644153,35.0424689 33.1405242,34.6199569 L31.9665323,33.4497847 L31.9664315,33.4497847 L26.1154234,27.6178134 L26.1154234,27.6179139 L25.6367944,27.1407416 L24.7815524,27.9933014 L31.1120968,34.3032488 C31.3190524,34.510134 31.4335685,34.7834354 31.434879,35.0737177 C31.4361895,35.3622919 31.3247984,35.6327799 31.121371,35.8355455 C30.7003024,36.2555455 30.0102823,36.2510239 29.5830645,35.8252967 L27.950504,34.1978469 C27.9503024,34.1977464 27.9503024,34.1976459 27.9501008,34.1976459 L23.5352823,29.7969904 L23.5352823,29.7969904 L23.0566532,29.3199187 L22.2013105,30.172378 L23.6806452,31.647 L27.0948589,35.0501053 C27.5216734,35.4756316 27.5264113,36.1636077 27.1053427,36.5834067 C26.683871,37.0035072 25.9941532,36.9986842 25.5669355,36.5731579 L17.7858871,28.8174258 C16.3268145,27.3631005 15.2924395,25.5295694 14.7944556,23.5150766 L13.9972782,20.2898182 L13.2357863,19.5308038 L19.5304435,13.2566268 L20.2109879,13.9349569 L21.1100806,14.3675167 C20.6318548,14.6333828 20.1873992,14.9515981 19.7964718,15.3411531 L16.459375,18.6673923 C16.0395161,19.0858852 15.8175403,19.6489665 15.8342742,20.2528421 C15.8507056,20.8441579 16.0955645,21.4048278 16.5236895,21.8315598 C16.9820565,22.2884354 17.5802419,22.5182297 18.1700605,22.5182297 C18.7292339,22.5182297 19.2808468,22.3115455 19.6980847,21.8955646 L21.7784274,19.8219904 C22.5700605,20.1361866 24.4279234,20.724689 26.7309476,20.4694737 L35.5738911,29.2474737 C35.7645161,29.4386842 35.8675403,29.696311 35.8632056,29.9734306 Z M36.4163306,20.7346364 L35.5560484,24.0166651 C35.325504,24.8964545 34.994254,25.7465024 34.5710685,26.5515359 L28.1745968,20.2018995 C28.6639113,20.0740909 29.1657258,19.9052871 29.6757056,19.6836316 L29.1923387,18.5783684 C25.3688508,20.2398804 21.946371,18.5834928 21.9135081,18.5671148 L21.5229839,18.3712823 L18.8420363,21.0435072 C18.45625,21.4279378 17.7995968,21.3993014 17.3783266,20.9793014 C17.1698589,20.771512 17.0506048,20.5017273 17.0428427,20.2198852 C17.0352823,19.9505024 17.1316532,19.7022201 17.3140121,19.5203541 L20.6511089,16.1941148 C21.8577621,14.9912871 23.7873992,14.5829426 25.653629,14.1879617 C25.811996,14.1544019 25.9698589,14.1210431 26.1262097,14.0873828 L29.2533266,13.4138756 L29.9550403,12.714445 L37.2089718,19.9446746 L36.4163306,20.7346364 Z" id="Shape"></path>
            <g id="Group" transform="translate(6.333165, 3.686354)">
                <path d="M11.325,2.78827751 L10.8310484,1.68763636 C11.5574597,1.3635933 12.3116935,1.0826555 13.0724798,0.852358852 L13.4237903,2.00605263 C12.7113911,2.22167943 12.0052419,2.48483254 11.325,2.78827751 Z M25.7305444,2.68609091 C25.0461694,2.3925933 24.3362903,2.139689 23.6203629,1.93421053 L23.9549395,0.775593301 C24.7194556,0.995038278 25.477621,1.2651244 26.2083669,1.57851675 L25.7305444,2.68609091 Z M15.3167339,1.54445455 L15.0938508,0.359311005 C15.8734879,0.213717703 16.6722782,0.115349282 17.4680444,0.0673205742 L17.5412298,1.27095215 C16.7955645,1.31596651 16.0471774,1.40800478 15.3167339,1.54445455 Z M21.7203629,1.49944019 C20.9881048,1.37333971 20.2385081,1.29195215 19.4921371,1.25738756 L19.5482863,0.0529521531 C20.3446573,0.0898277512 21.1448589,0.176741627 21.9265121,0.311282297 L21.7203629,1.49944019 Z" id="Shape"></path>
                <path d="M18.6949597,38.2509474 C18.1634073,38.2370813 17.6246976,38.20111 17.09375,38.1434354 C16.8340726,38.1153014 16.5712702,38.0814402 16.313004,38.042756 L16.4924395,36.850378 C16.7346774,36.8865502 16.9811492,36.9184019 17.2246976,36.9446268 C17.7225806,36.9987847 18.2277218,37.0326459 18.7262097,37.0456077 L18.6949597,38.2509474 Z M20.774496,38.1917656 L20.6742944,36.9901435 C21.4168347,36.9287512 22.1627016,36.8196316 22.8909274,36.6656986 L23.1415323,37.8452153 C22.3639113,38.0094976 21.5674395,38.1260526 20.774496,38.1917656 Z M14.2758065,37.625067 C13.5058468,37.4235072 12.7417339,37.1713062 12.0047379,36.8756986 L12.45625,35.7570718 C13.1464718,36.03389 13.8620968,36.2700144 14.5832661,36.4588134 L14.2758065,37.625067 Z M25.1506048,37.3050431 L24.7721774,36.1597895 C25.478629,35.9278852 26.1780242,35.6488565 26.8513105,35.3301388 L27.3700605,36.4193254 C26.6516129,36.7595455 25.9048387,37.0575646 25.1506048,37.3050431 Z M10.1188508,35.9967129 C9.41824597,35.6222297 8.73377016,35.1993158 8.08457661,34.7396268 L8.78518145,33.7566459 C9.39314516,34.1871962 10.0342742,34.5834833 10.6903226,34.9340526 L10.1188508,35.9967129 Z M29.1977823,35.4300144 L28.5638105,34.4029234 C29.1978831,34.0139713 29.8143145,33.5810096 30.3960685,33.1161962 L31.1529234,34.0568756 C30.5321573,34.5530383 29.8743952,35.0149378 29.1977823,35.4300144 Z M6.45625,33.448378 C5.86229839,32.9226746 5.29495968,32.3535646 4.77006048,31.7573254 L5.67943548,30.9621388 C6.17137097,31.5211005 6.70302419,32.0542392 7.25957661,32.5468852 L6.45625,33.448378 Z M32.7028226,32.6743923 L31.8486895,31.8205263 C32.3766129,31.2956268 32.8766129,30.7329474 33.3344758,30.1475598 L34.2884073,30.8889904 C33.8,31.5135646 33.2664315,32.1143254 32.7028226,32.6743923 Z M3.48467742,30.1272632 C3.02782258,29.4784737 2.60725806,28.7949187 2.23487903,28.0952871 L3.30352823,27.5300957 C3.65252016,28.1857177 4.04657258,28.8264689 4.47479839,29.4342632 L3.48467742,30.1272632 Z M35.4771169,29.1858804 L34.4479839,28.5523636 C34.8400202,27.9197512 35.1951613,27.2565933 35.5039315,26.5812775 L36.6047379,27.0811579 C36.275,27.8022919 35.8956653,28.5105646 35.4771169,29.1858804 Z M1.36139113,26.2141292 C1.0671371,25.477823 0.816935484,24.7157943 0.617540323,23.9496459 L1.78860887,23.6469043 C1.97530242,24.3647225 2.20957661,25.0782201 2.48518145,25.7678038 L1.36139113,26.2141292 Z M37.3626008,25.1483541 L36.2137097,24.7713589 C36.4461694,24.0675072 36.6363911,23.340445 36.7794355,22.6103684 L37.9666331,22.8414689 C37.8139113,23.6206794 37.6107863,24.3968756 37.3626008,25.1483541 Z M0.206451613,21.9162632 C0.0924395161,21.1330335 0.0271169355,20.3337273 0.0121975806,19.5404498 L1.22167339,19.5178421 C1.23568548,20.2608804 1.29677419,21.0095455 1.40362903,21.7429378 L0.206451613,21.9162632 Z M38.2551411,20.7889952 L37.05,20.6857033 C37.0941532,20.1720574 37.1168347,19.6510766 37.1168347,19.1375311 C37.1167339,18.9084402 37.1122984,18.6776411 37.103629,18.4517656 L38.3121976,18.405445 C38.3216734,18.6464928 38.3264113,18.8927656 38.3265121,19.1372297 C38.3265121,19.6854402 38.3025202,20.2410861 38.2551411,20.7889952 Z M1.290625,17.5755933 L0.0856854839,17.4683828 C0.096875,17.3435885 0.109274194,17.2187943 0.122983871,17.0936986 C0.195564516,16.4288325 0.303830645,15.7618565 0.444556452,15.1114593 L1.62691532,15.3656699 C1.49495968,15.9753732 1.39354839,16.6006507 1.32540323,17.2242201 C1.31260081,17.3414785 1.30100806,17.4585359 1.290625,17.5755933 Z M36.9227823,16.5174545 C36.8131048,15.7832584 36.6555444,15.0485598 36.4540323,14.3336555 L37.6186492,14.0075024 C37.8339718,14.7712392 38.0025202,15.5559761 38.1193548,16.3402105 L36.9227823,16.5174545 Z" id="Shape"></path>
            </g>
        </g>
    </g>
</svg>