<?xml version="1.0" encoding="UTF-8"?>
<svg width="304px" height="27px" viewBox="0 0 304 27" version="1.1" xmlns="http://www.w3.org/2000/svg" xmlns:xlink="http://www.w3.org/1999/xlink">
    <!-- Generator: Sketch 54.1 (76490) - https://sketchapp.com -->
    <title>sap-logo</title>
    <desc>Created with Sketch.</desc>
    <defs>
        <polygon id="path-1" points="0.000106481481 0.0130319149 39.2891111 0.0130319149 39.2891111 24.4680585 0.000106481481 24.4680585"></polygon>
        <polygon id="path-3" points="0.164008102 0.0130319149 43.2421563 0.0130319149 43.2421563 24.4679255 0.164008102 24.4679255"></polygon>
        <polygon id="path-5" points="0 24.7210638 301.664167 24.7210638 301.664167 0.266010638 0 0.266010638"></polygon>
    </defs>
    <g id="sap-logo" stroke="none" stroke-width="1" fill="none" fill-rule="evenodd">
        <g id="Group-37-Copy" transform="translate(1.000000, 1.000000)">
            <g id="Group-3" transform="translate(0.000000, 0.252979)">
                <mask id="mask-2" fill="white">
                    <use xlink:href="#path-1"></use>
                </mask>
                <g id="Clip-2"></g>
                <path d="M12.8734514,12.0755053 L12.8734514,12.0755053 C11.4607083,10.6640691 9.73224769,9.94864362 7.73571991,9.94864362 L7.26666898,9.94864362 C6.52715509,9.94864362 5.88906481,9.6856117 5.36996759,9.16672872 C4.85113657,8.64837766 4.58786111,8.01114362 4.58786111,7.27257979 C4.58786111,6.53428191 4.85113657,5.89704787 5.3702338,5.37816489 C5.88959722,4.85928191 6.5276875,4.59625 7.26666898,4.59625 L25.7744815,4.59625 L33.7821551,17.6486436 L39.2891111,17.6539628 L28.4466343,0.0130053191 L7.26666898,0.0130053191 C5.269875,0.0130053191 3.54114815,0.728430851 2.1286713,2.13986702 C0.716194444,3.55077128 0.000106481481,5.27763298 0.000106481481,7.27257979 C0.000106481481,9.26726064 0.716194444,10.9943883 2.1286713,12.4055585 C3.54114815,13.8167287 5.269875,14.5321543 7.26666898,14.5321543 L7.73571991,14.5321543 C8.47390278,14.5321543 9.11199306,14.7951862 9.63162269,15.3138032 C10.1509861,15.8332181 10.4142616,16.4704521 10.4142616,17.208484 C10.4142616,17.9467819 10.1509861,18.584016 9.63162269,19.1028989 C9.11252546,19.621516 8.47470139,19.8845479 7.73571991,19.8845479 L0.45212037,19.8845479 L0.45212037,24.4680585 L7.73571991,24.4680585 C9.73224769,24.4680585 11.4609745,23.752633 12.8734514,22.3414628 C14.3056273,20.9103457 15.0020162,19.2313564 15.0020162,17.208484 C15.0020162,15.2135372 14.2859282,13.4866755 12.8734514,12.0755053" id="Fill-1" fill="#DF0022" mask="url(#mask-2)"></path>
            </g>
            <g id="Group-6" transform="translate(14.108796, 0.252979)">
                <mask id="mask-4" fill="white">
                    <use xlink:href="#path-3"></use>
                </mask>
                <g id="Clip-5"></g>
                <path d="M37.8722951,9.1668617 L37.8722951,9.1668617 C37.3529317,9.68574468 36.7148414,9.94851064 35.97586,9.94851064 L32.0645289,9.94851064 L32.0645289,4.59611702 L35.97586,4.59611702 C36.714309,4.59611702 37.3523993,4.85941489 37.8720289,5.37803191 C38.3913924,5.89744681 38.6546678,6.53494681 38.6546678,7.27271277 C38.6546678,8.01047872 38.3913924,8.64797872 37.8722951,9.1668617 M41.1135914,2.13973404 C39.7013808,0.728297872 37.9726539,0.0128723404 35.97586,0.0128723404 L27.4767743,0.0128723404 L27.4767743,19.8846809 L8.12616088,19.8846809 L13.0341586,11.9317553 L10.4022025,7.60090426 L0.164008102,24.4679255 L32.0645289,24.4679255 L32.0645289,14.5322872 L35.97586,14.5322872 C37.9726539,14.5322872 39.7013808,13.8165957 41.1135914,12.4056915 C42.5460336,10.9745745 43.2421563,9.29558511 43.2421563,7.27271277 C43.2421563,5.27776596 42.5260683,3.55090426 41.1135914,2.13973404" id="Fill-4" fill="#0A3560" mask="url(#mask-4)"></path>
            </g>
            <polygon id="Fill-7" fill="#C0C1C3" points="30.6205868 17.9039894 28.5175775 14.4630319 26.4454479 17.8829787"></polygon>
            <path d="M71.8890289,8.06513298 C71.7958576,8.21406915 71.6978947,8.32550532 71.5954063,8.40023936 C71.4929178,8.47470745 71.361147,8.51194149 71.1995613,8.51194149 C71.05661,8.51194149 70.9027442,8.46699468 70.7382303,8.37683511 C70.5737164,8.28694149 70.3873738,8.18614362 70.1792025,8.07444149 C69.9710313,7.96273936 69.7335775,7.86167553 69.4665752,7.77178191 C69.1993067,7.68215426 68.8950359,7.63694149 68.5534965,7.63694149 C67.9633229,7.63694149 67.5240868,7.7624734 67.2352558,8.01406915 C66.9464248,8.26513298 66.8018762,8.60476064 66.8018762,9.03321809 C66.8018762,9.30635638 66.8886586,9.53295213 67.0627558,9.7124734 C67.2365868,9.89279255 67.4647234,10.0478457 67.7474317,10.1778989 C68.03014,10.308484 68.3530451,10.4281649 68.7166794,10.5364096 C69.0797813,10.6451862 69.4508692,10.7661968 69.8299433,10.8994415 C70.2087512,11.0329521 70.5801053,11.1896011 70.9432072,11.3696543 C71.3065752,11.5497074 71.6294803,11.7792287 71.9121887,12.058484 C72.194897,12.3374734 72.4230336,12.677367 72.5971308,13.0778989 C72.7709618,13.4781649 72.8580104,13.9606117 72.8580104,14.5252394 C72.8580104,15.1518351 72.7491331,15.7385372 72.5319109,16.2842819 C72.3144225,16.8305585 71.9992373,17.3068883 71.5860891,17.7132713 C71.1732072,18.1199202 70.6636933,18.4393351 70.0583461,18.6720479 C69.4524664,18.9047606 68.7645961,19.020984 67.9944688,19.020984 C67.5720035,19.020984 67.1418183,18.977633 66.7039132,18.8909309 C66.2660081,18.8039628 65.8422118,18.6813564 65.4322581,18.5231117 C65.0223044,18.365133 64.6371076,18.1771011 64.276934,17.9600798 C63.9164942,17.7430585 63.6029062,17.5010372 63.3359039,17.234016 L64.2676169,15.7630053 C64.335765,15.6513032 64.4321308,15.5616755 64.5564479,15.4933245 C64.6804988,15.4249734 64.8141331,15.3909309 64.9570845,15.3909309 C65.1434271,15.3909309 65.3311007,15.4499734 65.5206377,15.5677926 C65.7101748,15.6856117 65.9244688,15.8161968 66.1635197,15.95875 C66.4025706,16.1015691 66.677559,16.2318883 66.9882188,16.3494415 C67.2986123,16.4677926 67.6651748,16.5263032 68.08764,16.5263032 C68.6589132,16.5263032 69.1032072,16.4007713 69.4199896,16.1494415 C69.736772,15.8981117 69.8951632,15.4994415 69.8951632,14.9531649 C69.8951632,14.6369415 69.8081146,14.3794947 69.6342836,14.1808245 C69.4601863,13.9821543 69.2320498,13.8177926 68.9496076,13.6874734 C68.6668993,13.5568883 68.3453252,13.4425266 67.9851516,13.3430585 C67.6247118,13.2438564 67.2552211,13.13375 66.8764132,13.0127394 C66.4976053,12.8914628 66.1278484,12.7425266 65.7676748,12.5656649 C65.407235,12.3888032 65.0859271,12.1560904 64.8032187,11.8675266 C64.5205104,11.5789628 64.2923738,11.2191223 64.1185428,10.7877394 C63.9444456,10.3566223 63.8576632,9.82444149 63.8576632,9.19119681 C63.8576632,8.68268617 63.9601516,8.18614362 64.1651285,7.70210106 C64.3701053,7.21779255 64.6711817,6.78667553 65.06889,6.40821809 C65.4663322,6.02976064 65.9540174,5.72710106 66.5316794,5.50050532 C67.1093414,5.27417553 67.7708576,5.16087766 68.516228,5.16087766 C68.9323044,5.16087766 69.3377326,5.19332447 69.7319803,5.25848404 C70.1264942,5.32364362 70.5007766,5.42018617 70.8548275,5.54704787 C71.2088785,5.67444149 71.5397697,5.82630319 71.8469688,6.00316489 C72.1547002,6.1800266 72.4294225,6.38029255 72.6716678,6.60369681 L71.8890289,8.06513298 Z" id="Fill-9" fill="#000000"></path>
            <path d="M77.1251227,9.21933511 L77.1251227,15.3443351 C77.1251227,15.8222606 77.2337338,16.1914096 77.4512222,16.4520479 C77.6687106,16.7126862 77.9884213,16.8430053 78.4108866,16.8430053 C78.727669,16.8430053 79.0242199,16.7778457 79.3005394,16.6475266 C79.5768588,16.5169415 79.8457245,16.3342287 80.1066042,16.0983245 L80.1066042,9.21933511 L82.9949144,9.21933511 L82.9949144,18.8722606 L81.2060255,18.8722606 C80.8458519,18.8722606 80.6097292,18.7108245 80.4979236,18.3882181 L80.3208981,17.8297074 C80.1345556,18.0097606 79.9420903,18.1725266 79.7432361,18.3185372 C79.5443819,18.4642819 79.3316852,18.588484 79.1048796,18.6906117 C78.8780741,18.7930053 78.6344977,18.8738564 78.3736181,18.932633 C78.1127384,18.9916755 77.8268356,19.0209309 77.5164421,19.0209309 C76.988294,19.0209309 76.5208403,18.9297074 76.1143472,18.7464628 C75.7073218,18.56375 75.3641852,18.307633 75.0846713,17.9786436 C74.8051574,17.6496543 74.5937917,17.2618883 74.4511065,16.8150798 C74.3081551,16.3682713 74.2368125,15.8781117 74.2368125,15.3443351 L74.2368125,9.21933511 L77.1251227,9.21933511 Z" id="Fill-11" fill="#000000"></path>
            <path d="M85.2308125,18.872234 L85.2308125,9.21930851 L86.9451644,9.21930851 C87.0878495,9.21930851 87.207375,9.23180851 87.3037407,9.25654255 C87.4001065,9.2812766 87.4807662,9.32037234 87.5459861,9.37276596 C87.611206,9.42569149 87.6609861,9.49537234 87.6950602,9.58234043 C87.7291343,9.66930851 87.7586829,9.77489362 87.783706,9.89882979 L87.9420972,10.8017553 C88.2961481,10.2557447 88.6935903,9.8243617 89.1346898,9.50787234 C89.5755231,9.19138298 90.0570856,9.0331383 90.5788449,9.0331383 C91.0196782,9.0331383 91.3737292,9.1387234 91.6409977,9.34962766 L91.2683125,11.4719681 C91.2432894,11.6022872 91.1937755,11.6940426 91.1192384,11.7464362 C91.0447014,11.7993617 90.9451412,11.8256915 90.8210903,11.8256915 C90.7154074,11.8256915 90.5910903,11.8115957 90.4484051,11.7839362 C90.3054537,11.7557447 90.1252338,11.7419149 89.9080116,11.7419149 C89.1501296,11.7419149 88.5538333,12.1453723 88.1191227,12.9520213 L88.1191227,18.872234 L85.2308125,18.872234 Z" id="Fill-13" fill="#000000"></path>
            <path d="M96.3366181,13.5385372 C96.8149861,13.5385372 97.1613171,13.4191223 97.3756111,13.1800266 C97.5899051,12.9411968 97.696919,12.6324202 97.696919,12.2539628 C97.696919,11.8627394 97.5899051,11.5558245 97.3756111,11.3324202 C97.1613171,11.10875 96.8149861,10.9970479 96.3366181,10.9970479 C95.85825,10.9970479 95.5121852,11.10875 95.2978912,11.3324202 C95.0835972,11.5558245 94.9763171,11.8627394 94.9763171,12.2539628 C94.9763171,12.440133 95.0026713,12.6108777 95.0556458,12.7659309 C95.1083542,12.920984 95.1906111,13.0560904 95.3024167,13.1707181 C95.4142222,13.2856117 95.5555764,13.3755053 95.7264792,13.4406649 C95.8971157,13.5058245 96.1004954,13.5385372 96.3366181,13.5385372 M98.4795579,19.2050266 C98.4795579,19.04625 98.431375,18.9196543 98.3352755,18.8247074 C98.2389097,18.7297606 98.1084699,18.6534309 97.943956,18.596516 C97.7791759,18.5396011 97.5867106,18.4981117 97.366294,18.4728457 C97.1456111,18.4475798 96.9078912,18.4348138 96.6534005,18.4348138 L95.8614444,18.4348138 C95.5880532,18.4348138 95.3178565,18.408484 95.0508542,18.3555585 C94.8706343,18.4800266 94.7231574,18.6185904 94.6084236,18.770984 C94.4934236,18.9233777 94.4359236,19.095984 94.4359236,19.2888032 C94.4359236,19.4257713 94.4654722,19.5502394 94.5245694,19.6619415 C94.5834005,19.7739096 94.6874861,19.8704521 94.8365602,19.9513032 C94.9856343,20.0321543 95.1860856,20.095984 95.4376481,20.1427926 C95.6892106,20.1893351 96.0073241,20.2127394 96.3925208,20.2127394 C96.8085972,20.2127394 97.1504028,20.1872074 97.4174051,20.1366755 C97.6844074,20.0858777 97.8973704,20.0159309 98.0557616,19.927367 C98.2141528,19.8385372 98.3243611,19.7324202 98.3863866,19.60875 C98.448412,19.4850798 98.4795579,19.3507713 98.4795579,19.2050266 M96.3366181,9.05183511 C96.7465718,9.05183511 97.1333657,9.09199468 97.4967338,9.17284574 C97.8601019,9.25369681 98.1968495,9.36805851 98.5075093,9.51726064 L101.423771,9.51726064 L101.423771,10.5691223 C101.423771,10.7302926 101.378782,10.8576862 101.288806,10.9507713 C101.198562,11.0438564 101.044963,11.1153989 100.827475,11.1646011 L100.119373,11.3231117 C100.206421,11.602367 100.249812,11.8909309 100.249812,12.1888032 C100.249812,12.6728457 100.148921,13.1071543 99.9471389,13.4917287 C99.7450903,13.8765691 99.4687708,14.2039628 99.1179144,14.4741755 C98.7667917,14.7438564 98.3523125,14.9518351 97.8739444,15.0975798 C97.3955764,15.2435904 96.8831343,15.3164628 96.3366181,15.3164628 C96.0323472,15.3164628 95.7464444,15.2975798 95.4794421,15.2606117 C95.2683426,15.3858777 95.1626597,15.5297606 95.1626597,15.6927926 C95.1626597,15.8558245 95.2481111,15.9731117 95.4190139,16.0451862 C95.5896505,16.1172606 95.8148588,16.1675266 96.0943727,16.1954521 C96.3738866,16.2239096 96.6938634,16.2377394 97.054037,16.2377394 C97.4142106,16.2377394 97.7807731,16.2550266 98.1534583,16.2893351 C98.5261435,16.3236436 98.892706,16.3810904 99.2528796,16.4619415 C99.6130532,16.5430585 99.9330301,16.6736436 100.212544,16.8542287 C100.492058,17.0348138 100.717266,17.2760372 100.888169,17.5778989 C101.058806,17.8797606 101.144257,18.2643351 101.144257,18.7310904 C101.144257,19.1669947 101.038574,19.5933245 100.827475,20.0103457 C100.616375,20.427367 100.305715,20.7975798 99.8957616,21.121516 C99.4858079,21.4451862 98.9826829,21.7050266 98.3863866,21.9013032 C97.7900903,22.0973138 97.1067454,22.1954521 96.3366181,22.1954521 C95.5787361,22.1954521 94.925206,22.1236436 94.3754954,21.9810904 C93.8257847,21.8382713 93.3692454,21.6502394 93.0058773,21.4172606 C92.6425093,21.1842819 92.3736435,20.9153989 92.1998125,20.6114096 C92.0259815,20.3066223 91.9389329,19.990133 91.9389329,19.6608777 C91.9389329,19.2318883 92.0693727,18.8701862 92.3302523,18.5749734 C92.5911319,18.2800266 92.9481111,18.0486436 93.4017222,17.8808245 C93.1842338,17.7382713 93.0104028,17.5555585 92.879963,17.3326862 C92.7495231,17.1095479 92.6843032,16.827633 92.6843032,16.4866755 C92.6843032,16.3443883 92.7090602,16.1938564 92.7588403,16.0361436 C92.8086204,15.8781649 92.8860856,15.7247074 92.9917685,15.5757713 C93.0974514,15.427367 93.2308194,15.2845479 93.3924051,15.1483777 C93.5539907,15.0119415 93.746456,14.8911968 93.9700671,14.7856117 C93.4669421,14.5191223 93.0710972,14.165133 92.7822662,13.7244415 C92.493169,13.284016 92.3488866,12.7720479 92.3488866,12.1888032 C92.3488866,11.7044947 92.451375,11.2688564 92.6563519,10.8808245 C92.8613287,10.4930585 93.1421736,10.1640691 93.4996852,9.89412234 C93.8566644,9.62417553 94.2775324,9.41646277 94.7620231,9.27045213 C95.2465139,9.12470745 95.7714676,9.05183511 96.3366181,9.05183511" id="Fill-15" fill="#000000"></path>
            <mask id="mask-6" fill="white">
                <use xlink:href="#path-5"></use>
            </mask>
            <g id="Clip-18"></g>
            <path d="M102.765278,18.8721277 L105.653588,18.8721277 L105.653588,9.21920213 L102.765278,9.21920213 L102.765278,18.8721277 Z M105.989005,6.57558511 C105.989005,6.80537234 105.942419,7.02106383 105.849248,7.22265957 C105.756076,7.42425532 105.628831,7.60138298 105.467245,7.75324468 C105.30566,7.90537234 105.117986,8.02638298 104.903692,8.1162766 C104.689398,8.20643617 104.460995,8.25138298 104.21875,8.25138298 C103.982627,8.25138298 103.762211,8.20643617 103.557234,8.1162766 C103.352257,8.02638298 103.17044,7.90537234 103.012315,7.75324468 C102.853924,7.60138298 102.729606,7.42425532 102.63963,7.22265957 C102.549387,7.02106383 102.504398,6.80537234 102.504398,6.57558511 C102.504398,6.33994681 102.549387,6.11946809 102.63963,5.91494681 C102.729606,5.70989362 102.853924,5.53010638 103.012315,5.37478723 C103.17044,5.21973404 103.352257,5.0987234 103.557234,5.01175532 C103.762211,4.92505319 103.982627,4.88143617 104.21875,4.88143617 C104.460995,4.88143617 104.689398,4.92505319 104.903692,5.01175532 C105.117986,5.0987234 105.30566,5.21973404 105.467245,5.37478723 C105.628831,5.53010638 105.756076,5.70989362 105.849248,5.91494681 C105.942419,6.11946809 105.989005,6.33994681 105.989005,6.57558511 L105.989005,6.57558511 Z" id="Fill-17" fill="#000000" mask="url(#mask-6)"></path>
            <path d="M114.951897,11.5093351 C114.864848,11.6146543 114.780994,11.6986968 114.700334,11.7603989 C114.619409,11.822633 114.504675,11.85375 114.355601,11.85375 C114.212649,11.85375 114.083807,11.8197074 113.969073,11.7510904 C113.853807,11.6830053 113.72523,11.6069415 113.582279,11.5231649 C113.439328,11.4393883 113.271619,11.3633245 113.079154,11.2949734 C112.886689,11.2268883 112.647372,11.1928457 112.361735,11.1928457 C112.007684,11.1928457 111.701816,11.2580053 111.444131,11.3883245 C111.186179,11.5183777 110.973483,11.7045479 110.805774,11.9468351 C110.638066,12.1888564 110.513749,12.485133 110.433089,12.8356649 C110.352429,13.1864628 110.311966,13.5819415 110.311966,14.022367 C110.311966,14.947367 110.490589,15.6577394 110.847834,16.1542819 C111.204814,16.6508245 111.697024,16.8989628 112.324466,16.8989628 C112.659883,16.8989628 112.925554,16.8569415 113.121214,16.7731649 C113.316608,16.6896543 113.482719,16.5963032 113.619547,16.4939096 C113.75611,16.391516 113.881758,16.2971011 113.997024,16.210133 C114.111758,16.1231649 114.256307,16.0798138 114.430138,16.0798138 C114.659872,16.0798138 114.833969,16.1635904 114.951897,16.3311436 L115.790439,17.3643883 C115.492291,17.7056117 115.178703,17.9832713 114.849409,18.197367 C114.520115,18.4114628 114.183367,18.579016 113.838367,18.7000266 C113.493633,18.8210372 113.147568,18.9048138 112.79964,18.9513564 C112.451712,18.9978989 112.113101,19.0210372 111.784073,19.0210372 C111.193899,19.0210372 110.630346,18.9093351 110.093147,18.6859309 C109.555682,18.4627926 109.083703,18.1385904 108.676943,17.7133245 C108.269918,17.2883245 107.947013,16.7654521 107.707962,16.1449734 C107.468645,15.5244947 107.349119,14.8170479 107.349119,14.022367 C107.349119,13.3276862 107.453205,12.6774202 107.661376,12.072367 C107.869281,11.4673138 108.176747,10.9428457 108.583772,10.4992287 C108.990265,10.0556117 109.493656,9.70667553 110.093147,9.45215426 C110.692372,9.19763298 111.386365,9.07023936 112.175392,9.07023936 C112.933274,9.07023936 113.597719,9.19125 114.169258,9.43327128 C114.740797,9.67529255 115.256168,10.0292819 115.715902,10.4947074 L114.951897,11.5093351 Z" id="Fill-19" fill="#000000" mask="url(#mask-6)"></path>
            <path d="M120.392968,17.1128723 C120.765653,17.1128723 121.091752,17.0477128 121.371266,16.9176596 C121.65078,16.7870745 121.933488,16.5761702 122.219125,16.2844149 L122.219125,14.9626064 C121.641463,14.9626064 121.166289,15.0003723 120.793604,15.0753723 C120.420919,15.1503723 120.125965,15.2445213 119.908477,15.3570213 C119.690988,15.4697872 119.540583,15.5982447 119.456729,15.7421277 C119.372609,15.8862766 119.330815,16.0426596 119.330815,16.2112766 C119.330815,16.5431915 119.420792,16.7764362 119.601012,16.9110106 C119.781231,17.0458511 120.045039,17.1128723 120.392968,17.1128723 L120.392968,17.1128723 Z M123.709866,18.8721809 C123.436475,18.8721809 123.230167,18.8352128 123.09041,18.7604787 C122.950653,18.6860106 122.834056,18.5309574 122.740884,18.2950532 L122.535907,17.7644681 C122.293662,17.9695213 122.060734,18.1493085 121.837123,18.3043617 C121.613512,18.4594149 121.382181,18.5915957 121.14313,18.7001064 C120.903812,18.808617 120.649322,18.8894681 120.379125,18.9421277 C120.108928,18.9947872 119.809183,19.021117 119.479889,19.021117 C119.038789,19.021117 118.638153,18.9636702 118.277979,18.8482447 C117.917806,18.7333511 117.611937,18.5636702 117.360375,18.3394681 C117.108812,18.1155319 116.914484,17.8368085 116.777921,17.5035638 C116.641359,17.1705851 116.572944,16.7860106 116.572944,16.3503723 C116.572944,16.0080851 116.659993,15.6559574 116.833824,15.2950532 C117.007655,14.9341489 117.308998,14.6054255 117.737586,14.3096809 C118.166174,14.0142021 118.743836,13.7665957 119.470572,13.5673936 C120.197308,13.3681915 121.113581,13.2684574 122.219125,13.2684574 L122.219125,12.8551596 C122.219125,12.2854787 122.102794,11.8735106 121.869866,11.6197872 C121.636938,11.3663298 121.306046,11.2392021 120.877458,11.2392021 C120.535919,11.2392021 120.256405,11.2767021 120.038917,11.3509043 C119.821428,11.4253723 119.627366,11.5094149 119.456729,11.602234 C119.285826,11.6953191 119.119715,11.7790957 118.95813,11.8538298 C118.796544,11.9280319 118.604079,11.9655319 118.380468,11.9655319 C118.181613,11.9655319 118.012574,11.9173936 117.872817,11.821117 C117.73306,11.7248404 117.622586,11.6054255 117.541926,11.4626064 L117.020167,10.5596809 C117.603951,10.0447872 118.251625,9.6612766 118.962921,9.41021277 C119.673951,9.15888298 120.436359,9.03308511 121.250144,9.03308511 C121.833928,9.03308511 122.360479,9.12803191 122.82953,9.31712766 C123.298315,9.5062234 123.696023,9.77031915 124.022123,10.1083511 C124.348222,10.4466489 124.598188,10.8482447 124.772019,11.3136702 C124.94585,11.7790957 125.032898,12.2878723 125.032898,12.8405319 L125.032898,18.8721809 L123.709866,18.8721809 Z" id="Fill-20" fill="#000000" mask="url(#mask-6)"></path>
            <polygon id="Fill-21" fill="#000000" mask="url(#mask-6)" points="127.175625 18.8721277 130.063935 18.8721277 130.063935 4.93728723 127.175625 4.93728723"></polygon>
            <path d="M139.902531,13.687367 L143.610749,13.687367 L142.362253,9.97327128 C142.281594,9.73736702 142.186825,9.45970745 142.077948,9.1400266 C141.969337,8.8206117 141.862323,8.47460106 141.75664,8.10226064 C141.657346,8.48098404 141.554858,8.83151596 141.449175,9.15412234 C141.343492,9.47699468 141.244198,9.75625 141.151027,9.9918883 L139.902531,13.687367 Z M148.623365,18.8722074 L146.182277,18.8722074 C145.908885,18.8722074 145.683943,18.8086436 145.506918,18.68125 C145.329892,18.5543883 145.207172,18.3913564 145.138758,18.1926862 L144.337485,15.8283245 L139.175795,15.8283245 L138.374522,18.1926862 C138.31223,18.3666223 138.191374,18.5232713 138.011154,18.6628989 C137.830934,18.8022606 137.610517,18.8722074 137.349638,18.8722074 L134.889916,18.8722074 L140.144777,5.30970745 L143.368503,5.30970745 L148.623365,18.8722074 Z" id="Fill-22" fill="#000000" mask="url(#mask-6)"></path>
            <path d="M152.424753,9.21933511 L152.424753,15.3443351 C152.424753,15.8222606 152.533365,16.1914096 152.750853,16.4520479 C152.968341,16.7126862 153.288052,16.8430053 153.710517,16.8430053 C154.0273,16.8430053 154.323851,16.7778457 154.60017,16.6475266 C154.87649,16.5169415 155.145355,16.3342287 155.406235,16.0983245 L155.406235,9.21933511 L158.294545,9.21933511 L158.294545,18.8722606 L156.505656,18.8722606 C156.145483,18.8722606 155.90936,18.7108245 155.797554,18.3882181 L155.620529,17.8297074 C155.434186,18.0097606 155.241721,18.1725266 155.042867,18.3185372 C154.844013,18.4642819 154.631316,18.588484 154.40451,18.6906117 C154.177705,18.7930053 153.934128,18.8738564 153.673249,18.932633 C153.412369,18.9916755 153.126466,19.0209309 152.816073,19.0209309 C152.287925,19.0209309 151.820471,18.9297074 151.413978,18.7464628 C151.006953,18.56375 150.663816,18.307633 150.384302,17.9786436 C150.104788,17.6496543 149.893422,17.2618883 149.750737,16.8150798 C149.607786,16.3682713 149.536443,15.8781117 149.536443,15.3443351 L149.536443,9.21933511 L152.424753,9.21933511 Z" id="Fill-23" fill="#000000" mask="url(#mask-6)"></path>
            <path d="M163.921825,19.0210638 C163.462091,19.0210638 163.056663,18.9543085 162.706073,18.8210638 C162.35495,18.6875532 162.05973,18.4984574 161.820679,18.2532447 C161.581628,18.0080319 161.399811,17.7117553 161.27576,17.3644149 C161.151443,17.0168085 161.089418,16.6290426 161.089418,16.2008511 L161.089418,11.2114894 L160.26951,11.2114894 C160.120436,11.2114894 159.993191,11.1633511 159.887508,11.0670745 C159.781825,10.9707979 159.729117,10.8295745 159.729117,10.6434043 L159.729117,9.51734043 L161.266443,9.21946809 L161.834788,6.86414894 C161.909325,6.56654255 162.120425,6.41734043 162.468353,6.41734043 L163.977728,6.41734043 L163.977728,9.23808511 L166.325645,9.23808511 L166.325645,11.2114894 L163.977728,11.2114894 L163.977728,16.0051064 C163.977728,16.2285106 164.032034,16.4133511 164.140911,16.5590957 C164.249256,16.7048404 164.406316,16.7777128 164.611293,16.7777128 C164.716709,16.7777128 164.805355,16.7670745 164.876698,16.745266 C164.948041,16.7234574 165.010332,16.6987234 165.063307,16.6707979 C165.115749,16.6428723 165.165529,16.6181383 165.212381,16.5963298 C165.2587,16.5747872 165.313272,16.563883 165.375297,16.563883 C165.462346,16.563883 165.532091,16.5840957 165.585066,16.6242553 C165.637508,16.6646809 165.69208,16.7282447 165.747983,16.8149468 L166.623793,18.1835638 C166.251108,18.4625532 165.831837,18.6721277 165.36598,18.8117553 C164.900124,18.951383 164.418828,19.0210638 163.921825,19.0210638" id="Fill-24" fill="#000000" mask="url(#mask-6)"></path>
            <path d="M172.288661,16.8801596 C172.953105,16.8801596 173.442388,16.646117 173.755976,16.177234 C174.069297,15.7091489 174.226358,14.9969149 174.226358,14.0410638 C174.226358,13.0854787 174.069297,12.3751064 173.755976,11.9096809 C173.442388,11.4442553 172.953105,11.2115426 172.288661,11.2115426 C171.60505,11.2115426 171.105385,11.4442553 170.788337,11.9096809 C170.471554,12.3751064 170.313429,13.0854787 170.313429,14.0410638 C170.313429,14.9969149 170.471554,15.7091489 170.788337,16.177234 C171.105385,16.646117 171.60505,16.8801596 172.288661,16.8801596 M172.288661,9.07031915 C173.021253,9.07031915 173.689159,9.18521277 174.291578,9.415 C174.893997,9.64452128 175.41123,9.97324468 175.843013,10.4017021 C176.274529,10.8296277 176.609946,11.3495745 176.849263,11.9607447 C177.088047,12.5719149 177.207839,13.2591489 177.207839,14.0224468 C177.207839,14.7918617 177.088047,15.4854787 176.849263,16.1030319 C176.609946,16.7203191 176.274529,17.2447872 175.843013,17.6761702 C175.41123,18.1075532 174.893997,18.4392021 174.291578,18.6719149 C173.689159,18.9046277 173.021253,19.021117 172.288661,19.021117 C171.549413,19.021117 170.876983,18.9046277 170.271369,18.6719149 C169.66549,18.4392021 169.143997,18.1075532 168.706091,17.6761702 C168.26792,17.2447872 167.929575,16.7203191 167.690524,16.1030319 C167.451207,15.4854787 167.331682,14.7918617 167.331682,14.0224468 C167.331682,13.2591489 167.451207,12.5719149 167.690524,11.9607447 C167.929575,11.3495745 168.26792,10.8296277 168.706091,10.4017021 C169.143997,9.97324468 169.66549,9.64452128 170.271369,9.415 C170.876983,9.18521277 171.549413,9.07031915 172.288661,9.07031915" id="Fill-25" fill="#000000" mask="url(#mask-6)"></path>
            <path d="M178.791671,18.872234 L178.791671,9.21930851 L180.58056,9.21930851 C180.760514,9.21930851 180.911185,9.25973404 181.032308,9.34031915 C181.153431,9.42117021 181.238616,9.54218085 181.288662,9.70335106 L181.45637,10.2618617 C181.642713,10.0881915 181.835178,9.92675532 182.034032,9.77781915 C182.232887,9.62888298 182.445583,9.50308511 182.672123,9.40095745 C182.898928,9.29856383 183.144368,9.21771277 183.408442,9.15893617 C183.67225,9.09989362 183.959484,9.07037234 184.269877,9.07037234 C184.798025,9.07037234 185.265479,9.1618617 185.672238,9.34510638 C186.079264,9.52808511 186.4224,9.78234043 186.701914,10.1084043 C186.981428,10.4339362 187.192528,10.8219681 187.335479,11.2719681 C187.478431,11.7217021 187.549507,12.2105319 187.549507,12.7379255 L187.549507,18.872234 L184.661463,18.872234 L184.661463,12.7379255 C184.661463,12.266383 184.552852,11.8985638 184.335363,11.634734 C184.117875,11.3711702 183.797898,11.2392553 183.375699,11.2392553 C183.058917,11.2392553 182.760502,11.3076064 182.481255,11.4440426 C182.201741,11.5807447 181.934472,11.7637234 181.679981,11.9932447 L181.679981,18.872234 L178.791671,18.872234 Z" id="Fill-26" fill="#000000" mask="url(#mask-6)"></path>
            <path d="M193.903656,16.8801596 C194.568101,16.8801596 195.057383,16.646117 195.371503,16.177234 C195.684825,15.7091489 195.841885,14.9969149 195.841885,14.0410638 C195.841885,13.0854787 195.684825,12.3751064 195.371503,11.9096809 C195.057383,11.4442553 194.568101,11.2115426 193.903656,11.2115426 C193.220578,11.2115426 192.720381,11.4442553 192.403598,11.9096809 C192.087082,12.3751064 191.928425,13.0854787 191.928425,14.0410638 C191.928425,14.9969149 192.087082,15.7091489 192.403598,16.177234 C192.720381,16.646117 193.220578,16.8801596 193.903656,16.8801596 M193.903656,9.07031915 C194.636781,9.07031915 195.30442,9.18521277 195.906839,9.415 C196.509524,9.64452128 197.026226,9.97324468 197.458541,10.4017021 C197.890057,10.8296277 198.225207,11.3495745 198.464524,11.9607447 C198.703575,12.5719149 198.823101,13.2591489 198.823101,14.0224468 C198.823101,14.7918617 198.703575,15.4854787 198.464524,16.1030319 C198.225207,16.7203191 197.890057,17.2447872 197.458541,17.6761702 C197.026226,18.1075532 196.509524,18.4392021 195.906839,18.6719149 C195.30442,18.9046277 194.636781,19.021117 193.903656,19.021117 C193.164409,19.021117 192.491978,18.9046277 191.886631,18.6719149 C191.281017,18.4392021 190.758992,18.1075532 190.321353,17.6761702 C189.883448,17.2447872 189.544837,16.7203191 189.306052,16.1030319 C189.066735,15.4854787 188.947209,14.7918617 188.947209,14.0224468 C188.947209,13.2591489 189.066735,12.5719149 189.306052,11.9607447 C189.544837,11.3495745 189.883448,10.8296277 190.321353,10.4017021 C190.758992,9.97324468 191.281017,9.64452128 191.886631,9.415 C192.491978,9.18521277 193.164409,9.07031915 193.903656,9.07031915" id="Fill-27" fill="#000000" mask="url(#mask-6)"></path>
            <path d="M200.406933,18.872234 L200.406933,9.21930851 L202.195822,9.21930851 C202.375775,9.21930851 202.526447,9.25973404 202.647569,9.34031915 C202.768692,9.42117021 202.853877,9.54218085 202.903924,9.70335106 L203.062315,10.2246277 C203.223634,10.0570745 203.391343,9.90335106 203.56544,9.76398936 C203.739271,9.6243617 203.927211,9.50308511 204.128993,9.40095745 C204.330775,9.29856383 204.54853,9.21771277 204.781458,9.15893617 C205.014387,9.09989362 205.270475,9.07037234 205.549722,9.07037234 C206.133773,9.07037234 206.616667,9.22090426 206.998935,9.52196809 C207.380671,9.82303191 207.6711,10.2246277 207.869954,10.7272872 C208.031539,10.4294149 208.22853,10.1751596 208.461458,9.96398936 C208.694387,9.75308511 208.945949,9.58234043 209.216412,9.45202128 C209.486343,9.32170213 209.772245,9.22569149 210.073588,9.16345745 C210.374398,9.10148936 210.674144,9.07037234 210.972292,9.07037234 C211.525463,9.07037234 212.01581,9.15255319 212.444664,9.31691489 C212.873252,9.48154255 213.232095,9.7206383 213.520926,10.0339362 C213.809757,10.347234 214.028576,10.7320745 214.177384,11.1879255 C214.326725,11.6440426 214.400995,12.1607979 214.400995,12.7379255 L214.400995,18.872234 L211.512951,18.872234 L211.512951,12.7379255 C211.512951,11.7389894 211.084097,11.2392553 210.227187,11.2392553 C209.835868,11.2392553 209.5111,11.3679787 209.253414,11.6256915 C208.995729,11.8831383 208.866887,12.253883 208.866887,12.7379255 L208.866887,18.872234 L205.978576,18.872234 L205.978576,12.7379255 C205.978576,12.1855319 205.869699,11.797766 205.652477,11.5743617 C205.434988,11.3509574 205.115278,11.2392553 204.692813,11.2392553 C204.431933,11.2392553 204.184896,11.2982979 203.951968,11.416117 C203.719039,11.5339362 203.50022,11.6924468 203.295243,11.8908511 L203.295243,18.872234 L200.406933,18.872234 Z" id="Fill-28" fill="#000000" mask="url(#mask-6)"></path>
            <path d="M220.028808,21.37625 C219.941759,21.5685372 219.836076,21.7097606 219.712025,21.7999202 C219.587708,21.8898138 219.38912,21.9347606 219.115729,21.9347606 L216.954155,21.9347606 L218.817581,18.0251862 L214.960289,9.21933511 L217.513183,9.21933511 C217.736794,9.21933511 217.910625,9.26906915 218.034942,9.36827128 C218.159259,9.46773936 218.246042,9.58555851 218.295822,9.72199468 L219.879734,13.8828989 C220.028808,14.2677394 220.149931,14.6525798 220.243102,15.0371543 C220.305127,14.83875 220.373542,14.6432713 220.448079,14.4507181 C220.52235,14.2584309 220.593958,14.0629521 220.662373,13.8642819 L222.097211,9.72199468 C222.146725,9.57944149 222.244687,9.45976064 222.390567,9.36348404 C222.536713,9.2674734 222.693507,9.21933511 222.861215,9.21933511 L225.190498,9.21933511 L220.028808,21.37625 Z" id="Fill-29" fill="#000000" mask="url(#mask-6)"></path>
            <path d="M233.128426,11.9653989 L234.768241,11.9653989 C235.587882,11.9653989 236.178056,11.7699202 236.538495,11.3789628 C236.898669,10.9880053 237.078889,10.4417287 237.078889,9.74066489 C237.078889,9.43029255 237.032303,9.1481117 236.938866,8.89359043 C236.845961,8.63906915 236.704606,8.42045213 236.515336,8.23720745 C236.325532,8.05422872 236.086481,7.91327128 235.79765,7.81380319 C235.508819,7.71460106 235.165417,7.66486702 234.768241,7.66486702 L233.128426,7.66486702 L233.128426,11.9653989 Z M233.128426,14.3390691 L233.128426,18.8723138 L229.979236,18.8723138 L229.979236,5.30981383 L234.768241,5.30981383 C235.724711,5.30981383 236.546215,5.42284574 237.232488,5.64944149 C237.918762,5.87603723 238.484178,6.18773936 238.928206,6.58507979 C239.372234,6.98242021 239.700197,7.45050532 239.91103,7.99066489 C240.12213,8.53055851 240.228079,9.11380319 240.228079,9.74066489 C240.228079,10.4172606 240.119201,11.0377394 239.901713,11.602367 C239.684491,12.1669947 239.352269,12.6510372 238.905046,13.0544947 C238.457824,13.4576862 237.891076,13.7728457 237.204803,13.9991755 C236.517998,14.2257713 235.706076,14.3390691 234.768241,14.3390691 L233.128426,14.3390691 Z" id="Fill-30" fill="#000000" mask="url(#mask-6)"></path>
            <path d="M241.867654,18.872234 L241.867654,9.21930851 L243.58174,9.21930851 C243.724957,9.21930851 243.844216,9.23180851 243.940582,9.25654255 C244.036682,9.2812766 244.117608,9.32037234 244.182828,9.37276596 C244.248047,9.42569149 244.297828,9.49537234 244.331902,9.58234043 C244.366242,9.66930851 244.395524,9.77489362 244.420547,9.89882979 L244.578939,10.8017553 C244.93299,10.2557447 245.330432,9.8243617 245.771531,9.50787234 C246.212365,9.19138298 246.693927,9.0331383 247.215686,9.0331383 C247.65652,9.0331383 248.010571,9.1387234 248.277839,9.34962766 L247.905154,11.4719681 C247.880131,11.6022872 247.830351,11.6940426 247.75608,11.7464362 C247.681543,11.7993617 247.581983,11.8256915 247.457932,11.8256915 C247.352249,11.8256915 247.228198,11.8115957 247.085247,11.7839362 C246.942029,11.7557447 246.762341,11.7419149 246.544587,11.7419149 C245.786971,11.7419149 245.190409,12.1453723 244.755964,12.9520213 L244.755964,18.872234 L241.867654,18.872234 Z" id="Fill-31" fill="#000000" mask="url(#mask-6)"></path>
            <path d="M253.867877,16.8801596 C254.532322,16.8801596 255.021604,16.646117 255.335458,16.177234 C255.64878,15.7091489 255.80584,14.9969149 255.80584,14.0410638 C255.80584,13.0854787 255.64878,12.3751064 255.335458,11.9096809 C255.021604,11.4442553 254.532322,11.2115426 253.867877,11.2115426 C253.184532,11.2115426 252.684602,11.4442553 252.367819,11.9096809 C252.051037,12.3751064 251.892646,13.0854787 251.892646,14.0410638 C251.892646,14.9969149 252.051037,15.7091489 252.367819,16.177234 C252.684602,16.646117 253.184532,16.8801596 253.867877,16.8801596 M253.867877,9.07031915 C254.600736,9.07031915 255.268641,9.18521277 255.870794,9.415 C256.473479,9.64452128 256.990447,9.97324468 257.422495,10.4017021 C257.854012,10.8296277 258.189162,11.3495745 258.428745,11.9607447 C258.66753,12.5719149 258.787056,13.2591489 258.787056,14.0224468 C258.787056,14.7918617 258.66753,15.4854787 258.428745,16.1030319 C258.189162,16.7203191 257.854012,17.2447872 257.422495,17.6761702 C256.990447,18.1075532 256.473479,18.4392021 255.870794,18.6719149 C255.268641,18.9046277 254.600736,19.021117 253.867877,19.021117 C253.12863,19.021117 252.456199,18.9046277 251.850852,18.6719149 C251.244972,18.4392021 250.723213,18.1075532 250.285308,17.6761702 C249.847403,17.2447872 249.508792,16.7203191 249.270007,16.1030319 C249.03069,15.4854787 248.911164,14.7918617 248.911164,14.0224468 C248.911164,13.2591489 249.03069,12.5719149 249.270007,11.9607447 C249.508792,11.3495745 249.847403,10.8296277 250.285308,10.4017021 C250.723213,9.97324468 251.244972,9.64452128 251.850852,9.415 C252.456199,9.18521277 253.12863,9.07031915 253.867877,9.07031915" id="Fill-32" fill="#000000" mask="url(#mask-6)"></path>
            <path d="M263.78109,13.5385372 C264.259458,13.5385372 264.605789,13.4191223 264.819817,13.1800266 C265.034377,12.9411968 265.141391,12.6324202 265.141391,12.2539628 C265.141391,11.8627394 265.034377,11.5558245 264.819817,11.3324202 C264.605789,11.10875 264.259458,10.9970479 263.78109,10.9970479 C263.302722,10.9970479 262.956391,11.10875 262.742363,11.3324202 C262.528069,11.5558245 262.421056,11.8627394 262.421056,12.2539628 C262.421056,12.440133 262.447144,12.6108777 262.500118,12.7659309 C262.552826,12.920984 262.635083,13.0560904 262.746889,13.1707181 C262.858694,13.2856117 262.999782,13.3755053 263.170951,13.4406649 C263.341854,13.5058245 263.544968,13.5385372 263.78109,13.5385372 M265.92403,19.2050266 C265.92403,19.04625 265.875847,18.9196543 265.779748,18.8247074 C265.683382,18.7297606 265.552676,18.6534309 265.388428,18.596516 C265.223648,18.5396011 265.030917,18.4981117 264.810766,18.4728457 C264.590083,18.4475798 264.352363,18.4348138 264.097873,18.4348138 L263.305917,18.4348138 C263.032525,18.4348138 262.762329,18.408484 262.495326,18.3555585 C262.315106,18.4800266 262.16763,18.6185904 262.052896,18.770984 C261.937896,18.9233777 261.880396,19.095984 261.880396,19.2888032 C261.880396,19.4257713 261.909944,19.5502394 261.968775,19.6619415 C262.027873,19.7739096 262.132225,19.8704521 262.281032,19.9513032 C262.430106,20.0321543 262.630558,20.095984 262.88212,20.1427926 C263.133417,20.1893351 263.452062,20.2127394 263.836993,20.2127394 C264.253069,20.2127394 264.594875,20.1872074 264.862144,20.1366755 C265.12888,20.0858777 265.341576,20.0159309 265.500234,19.927367 C265.658625,19.8385372 265.768833,19.7324202 265.830859,19.60875 C265.89315,19.4850798 265.92403,19.3507713 265.92403,19.2050266 M263.78109,9.05183511 C264.191044,9.05183511 264.577838,9.09199468 264.94094,9.17284574 C265.304574,9.25369681 265.641322,9.36805851 265.951981,9.51726064 L268.868243,9.51726064 L268.868243,10.5691223 C268.868243,10.7302926 268.822988,10.8576862 268.733278,10.9507713 C268.643301,11.0438564 268.489435,11.1153989 268.271947,11.1646011 L267.563845,11.3231117 C267.650894,11.602367 267.694285,11.8909309 267.694285,12.1888032 C267.694285,12.6728457 267.593127,13.1071543 267.391611,13.4917287 C267.189829,13.8765691 266.913243,14.2039628 266.56212,14.4741755 C266.211264,14.7438564 265.796519,14.9518351 265.318417,15.0975798 C264.840315,15.2435904 264.327606,15.3164628 263.78109,15.3164628 C263.476553,15.3164628 263.190917,15.2975798 262.923914,15.2606117 C262.712549,15.3858777 262.607132,15.5297606 262.607132,15.6927926 C262.607132,15.8558245 262.692583,15.9731117 262.863486,16.0451862 C263.034123,16.1172606 263.259331,16.1675266 263.538845,16.1954521 C263.818625,16.2239096 264.138336,16.2377394 264.498509,16.2377394 C264.858683,16.2377394 265.225245,16.2550266 265.597931,16.2893351 C265.970882,16.3236436 266.337178,16.3810904 266.697352,16.4619415 C267.057792,16.5430585 267.377502,16.6736436 267.657282,16.8542287 C267.93653,17.0348138 268.161738,17.2760372 268.332641,17.5778989 C268.503278,17.8797606 268.588995,18.2643351 268.588995,18.7310904 C268.588995,19.1669947 268.483046,19.5933245 268.271947,20.0103457 C268.060847,20.427367 267.750187,20.7975798 267.340234,21.121516 C266.93028,21.4451862 266.427155,21.7050266 265.830859,21.9013032 C265.234562,22.0973138 264.551484,22.1954521 263.78109,22.1954521 C263.023208,22.1954521 262.369412,22.1236436 261.819968,21.9810904 C261.269991,21.8382713 260.813718,21.6502394 260.450083,21.4172606 C260.086981,21.1842819 259.818116,20.9153989 259.644285,20.6114096 C259.470454,20.3066223 259.383405,19.990133 259.383405,19.6608777 C259.383405,19.2318883 259.514111,18.8701862 259.774725,18.5749734 C260.03587,18.2800266 260.392583,18.0486436 260.846461,17.8808245 C260.628706,17.7382713 260.454875,17.5555585 260.324701,17.3326862 C260.193995,17.1095479 260.128775,16.827633 260.128775,16.4866755 C260.128775,16.3443883 260.153532,16.1938564 260.203579,16.0361436 C260.253093,15.8781649 260.330558,15.7247074 260.436507,15.5757713 C260.541924,15.427367 260.675292,15.2845479 260.836877,15.1483777 C260.998463,15.0119415 261.191194,14.8911968 261.414539,14.7856117 C260.911681,14.5191223 260.515303,14.165133 260.226472,13.7244415 C259.937641,13.284016 259.793625,12.7720479 259.793625,12.1888032 C259.793625,11.7044947 259.895847,11.2688564 260.100824,10.8808245 C260.305801,10.4930585 260.586912,10.1640691 260.944157,9.89412234 C261.301403,9.62417553 261.722271,9.41646277 262.206495,9.27045213 C262.690986,9.12470745 263.21594,9.05183511 263.78109,9.05183511" id="Fill-33" fill="#000000" mask="url(#mask-6)"></path>
            <path d="M270.116685,18.872234 L270.116685,9.21930851 L271.830771,9.21930851 C271.973988,9.21930851 272.093248,9.23180851 272.189613,9.25654255 C272.285713,9.2812766 272.366639,9.32037234 272.431859,9.37276596 C272.497079,9.42569149 272.546859,9.49537234 272.580933,9.58234043 C272.615273,9.66930851 272.644556,9.77489362 272.669579,9.89882979 L272.82797,10.8017553 C273.182021,10.2557447 273.579463,9.8243617 274.020562,9.50787234 C274.461396,9.19138298 274.942958,9.0331383 275.464718,9.0331383 C275.905551,9.0331383 276.259602,9.1387234 276.52687,9.34962766 L276.154185,11.4719681 C276.129162,11.6022872 276.079382,11.6940426 276.005111,11.7464362 C275.930574,11.7993617 275.831014,11.8256915 275.706963,11.8256915 C275.60128,11.8256915 275.477229,11.8115957 275.334278,11.7839362 C275.19106,11.7557447 275.011373,11.7419149 274.793618,11.7419149 C274.036002,11.7419149 273.43944,12.1453723 273.004995,12.9520213 L273.004995,18.872234 L270.116685,18.872234 Z" id="Fill-34" fill="#000000" mask="url(#mask-6)"></path>
            <path d="M280.980352,17.1128723 C281.353037,17.1128723 281.679137,17.0477128 281.95865,16.9176596 C282.238431,16.7870745 282.520873,16.5761702 282.806509,16.2844149 L282.806509,14.9626064 C282.228847,14.9626064 281.753674,15.0003723 281.380988,15.0753723 C281.008303,15.1503723 280.71335,15.2445213 280.496127,15.3570213 C280.278373,15.4697872 280.127968,15.5982447 280.043847,15.7421277 C279.960259,15.8862766 279.918199,16.0426596 279.918199,16.2112766 C279.918199,16.5431915 280.008442,16.7764362 280.188396,16.9110106 C280.368616,17.0458511 280.632424,17.1128723 280.980352,17.1128723 L280.980352,17.1128723 Z M284.29725,18.8721809 C284.024125,18.8721809 283.817285,18.8352128 283.677794,18.7604787 C283.537771,18.6860106 283.42144,18.5309574 283.328269,18.2950532 L283.123292,17.7644681 C282.881313,17.9695213 282.648384,18.1493085 282.424507,18.3043617 C282.200896,18.4594149 281.969565,18.5915957 281.730248,18.7001064 C281.491197,18.808617 281.236706,18.8894681 280.966243,18.9421277 C280.696312,18.9947872 280.396567,19.021117 280.067273,19.021117 C279.626174,19.021117 279.225537,18.9636702 278.86563,18.8482447 C278.50519,18.7333511 278.199322,18.5636702 277.947493,18.3394681 C277.696197,18.1155319 277.502134,17.8368085 277.365306,17.5035638 C277.228477,17.1705851 277.160329,16.7860106 277.160329,16.3503723 C277.160329,16.0080851 277.247377,15.6559574 277.421208,15.2950532 C277.595039,14.9341489 277.896382,14.6054255 278.32497,14.3096809 C278.753558,14.0142021 279.331486,13.7665957 280.057956,13.5673936 C280.784958,13.3681915 281.700965,13.2684574 282.806509,13.2684574 L282.806509,12.8551596 C282.806509,12.2854787 282.690178,11.8735106 282.45725,11.6197872 C282.224322,11.3663298 281.893697,11.2392021 281.464843,11.2392021 C281.123303,11.2392021 280.843523,11.2767021 280.626301,11.3509043 C280.409079,11.4253723 280.21475,11.5094149 280.043847,11.602234 C279.873211,11.6953191 279.7071,11.7790957 279.545514,11.8538298 C279.383928,11.9280319 279.191463,11.9655319 278.967852,11.9655319 C278.768998,11.9655319 278.599958,11.9173936 278.459935,11.821117 C278.320444,11.7248404 278.20997,11.6054255 278.12931,11.4626064 L277.607551,10.5596809 C278.191336,10.0447872 278.839009,9.6612766 279.550306,9.41021277 C280.261336,9.15888298 281.023743,9.03308511 281.837528,9.03308511 C282.421312,9.03308511 282.947863,9.12803191 283.416648,9.31712766 C283.885699,9.5062234 284.283141,9.77031915 284.609507,10.1083511 C284.93534,10.4466489 285.185572,10.8482447 285.359403,11.3136702 C285.5335,11.7790957 285.620549,12.2878723 285.620549,12.8405319 L285.620549,18.8721809 L284.29725,18.8721809 Z" id="Fill-35" fill="#000000" mask="url(#mask-6)"></path>
            <path d="M287.670024,18.872234 L287.670024,9.21930851 L289.458913,9.21930851 C289.638867,9.21930851 289.789538,9.25973404 289.910661,9.34031915 C290.031784,9.42117021 290.116969,9.54218085 290.167015,9.70335106 L290.325406,10.2246277 C290.486726,10.0570745 290.654434,9.90335106 290.828531,9.76398936 C291.002362,9.6243617 291.190302,9.50308511 291.392084,9.40095745 C291.593867,9.29856383 291.811622,9.21771277 292.04455,9.15893617 C292.277478,9.09989362 292.533566,9.07037234 292.812814,9.07037234 C293.396865,9.07037234 293.879758,9.22090426 294.262027,9.52196809 C294.643763,9.82303191 294.934191,10.2246277 295.133045,10.7272872 C295.294631,10.4294149 295.491622,10.1751596 295.72455,9.96398936 C295.957478,9.75308511 296.209041,9.58234043 296.479503,9.45202128 C296.749434,9.32170213 297.035337,9.22569149 297.336679,9.16345745 C297.63749,9.10148936 297.937235,9.07037234 298.235383,9.07037234 C298.788554,9.07037234 299.278902,9.15255319 299.707756,9.31691489 C300.136344,9.48154255 300.495186,9.7206383 300.784017,10.0339362 C301.072848,10.347234 301.291668,10.7320745 301.440476,11.1879255 C301.589816,11.6440426 301.664087,12.1607979 301.664087,12.7379255 L301.664087,18.872234 L298.776043,18.872234 L298.776043,12.7379255 C298.776043,11.7389894 298.347189,11.2392553 297.490279,11.2392553 C297.098959,11.2392553 296.774191,11.3679787 296.516506,11.6256915 C296.258821,11.8831383 296.129978,12.253883 296.129978,12.7379255 L296.129978,18.872234 L293.241668,18.872234 L293.241668,12.7379255 C293.241668,12.1855319 293.132791,11.797766 292.915568,11.5743617 C292.69808,11.3509574 292.378369,11.2392553 291.955904,11.2392553 C291.695024,11.2392553 291.447987,11.2982979 291.215059,11.416117 C290.982131,11.5339362 290.763311,11.6924468 290.558334,11.8908511 L290.558334,18.872234 L287.670024,18.872234 Z" id="Fill-36" fill="#000000" mask="url(#mask-6)"></path>
        </g>
    </g>
</svg>