<?xml version="1.0" encoding="UTF-8"?>
<svg width="52px" height="52px" viewBox="0 0 52 52" version="1.1" xmlns="http://www.w3.org/2000/svg" xmlns:xlink="http://www.w3.org/1999/xlink">
    <!-- Generator: Sketch 54.1 (76490) - https://sketchapp.com -->
    <title>team</title>
    <desc>Created with Sketch.</desc>
    <g id="team" stroke="none" stroke-width="1" fill="none" fill-rule="evenodd">
        <g id="Group" transform="translate(1.000000, 4.000000)" fill="#000000" fill-rule="nonzero">
            <path d="M25,0.211663636 C19.2271628,0.211663636 14.5348837,4.92831818 14.5348837,10.7311442 C14.5348837,16.3371477 18.9167087,20.9093342 24.4186047,21.2140987 L24.4186047,33.5233519 L20.8938953,33.5233519 C20.585432,27.9972614 16.0387779,23.588287 10.4651163,23.588287 C4.6922814,23.588287 0,28.3049299 0,34.1077675 C0,39.9105468 4.69227733,44.6272481 10.4651163,44.6272481 C10.6747883,44.6302287 10.8698147,44.5194963 10.9755161,44.3374522 C11.0812175,44.1554082 11.0812175,43.9302567 10.9755161,43.7482127 C10.8698147,43.5661687 10.6747883,43.4554362 10.4651163,43.4584169 C7.52436802,43.4584169 4.91946512,42.0879279 3.21584302,39.9519234 C4.92141977,37.8174273 7.52865174,36.4454299 10.4651163,36.4454299 C13.4058145,36.4454299 16.0271366,37.8121155 17.7325581,39.9519234 C16.6985302,41.2498408 15.3262401,42.2568473 13.7536337,42.8557383 C13.5313121,42.9070314 13.3593618,43.0842559 13.3139134,43.3089461 C13.2684651,43.5336363 13.3579144,43.7642852 13.5426578,43.8987735 C13.7274013,44.0332617 13.9733113,44.0467454 14.1715116,43.9332545 C17.9515047,42.4937788 20.6817099,38.9311539 20.912064,34.6921831 L29.1061047,34.6921831 C29.4092959,40.2226679 33.9578512,44.6272481 39.5348837,44.6272481 C45.3077209,44.6272481 50,39.9106052 50,34.1077675 C50,28.3049299 45.3077209,23.588287 39.5348837,23.588287 C33.9578512,23.588287 29.4092959,27.9928636 29.1061047,33.5233519 L25.5813953,33.5233519 L25.5813953,21.2140987 C31.0832913,20.9093342 35.4651163,16.3371477 35.4651163,10.7311442 C35.4651163,6.23153571 32.6499384,2.38718571 28.6882267,0.887394156 C28.4934962,0.812359682 28.2737343,0.847452139 28.1117231,0.979452538 C27.9497119,1.11145294 27.8700648,1.32030728 27.9027841,1.52734215 C27.9355034,1.73437702 28.0756183,1.9081389 28.2703488,1.98317338 C31.7888279,3.31516753 34.3023256,6.72135195 34.3023256,10.7311442 C34.3023256,12.5131664 33.7981948,14.1723041 32.9396802,15.5890987 C31.0219343,13.3436156 28.1736692,11.8999753 25,11.8999753 C21.8263308,11.8999753 18.9780657,13.3436156 17.0603198,15.5890987 C16.2018052,14.1723041 15.6976744,12.5131664 15.6976744,10.7311442 C15.6976744,5.5600013 19.8555814,1.38049481 25,1.38049481 C25.209672,1.38347549 25.4046985,1.27274301 25.5103998,1.09069898 C25.6161012,0.908654959 25.6161012,0.683503482 25.5103998,0.501459458 C25.4046985,0.319415433 25.209672,0.208682948 25,0.211663636 Z M25,3.71815714 C23.4014076,3.71815714 22.0930233,5.03333766 22.0930233,6.64023506 C22.0930233,8.24713247 23.4014076,9.56231299 25,9.56231299 C26.5985924,9.56231299 27.9069767,8.24713247 27.9069767,6.64023506 C27.9069767,5.03333766 26.5985924,3.71815714 25,3.71815714 Z M25,4.88698831 C25.9701738,4.88698831 26.744186,5.66502078 26.744186,6.64023506 C26.744186,7.61544935 25.9701738,8.39348182 25,8.39348182 C24.0298262,8.39348182 23.255814,7.61544935 23.255814,6.64023506 C23.255814,5.66502078 24.0298262,4.88698831 25,4.88698831 Z M25,13.0688065 C27.9364645,13.0688065 30.5436965,14.4407893 32.2492733,16.5753 C30.5442948,18.7126673 27.9407494,20.0817935 25,20.0817935 C22.0592506,20.0817935 19.4557052,18.7126673 17.7507267,16.5753 C19.4563035,14.4407893 22.0635355,13.0688065 25,13.0688065 Z M10.4651163,24.7571182 C15.6095378,24.7571182 19.7674419,28.9365662 19.7674419,34.1077675 C19.7674419,35.8828083 19.276932,37.5534169 18.4229651,38.9657221 C16.505136,36.7148121 13.6432157,35.2765987 10.4651163,35.2765987 C7.29144709,35.2765987 4.44318198,36.7202273 2.52543605,38.9657221 C1.67012157,37.5511062 1.1627907,35.8870389 1.1627907,34.1077675 C1.1627907,28.9365662 5.32069535,24.7571182 10.4651163,24.7571182 Z M39.5348837,24.7571182 C44.6793023,24.7571182 48.8372093,28.9366247 48.8372093,34.1077675 C48.8372093,35.8897897 48.3330785,37.5489298 47.474564,38.9657221 C45.556818,36.7202273 42.7085529,35.2765987 39.5348837,35.2765987 C36.3612145,35.2765987 33.5129494,36.7202273 31.5952035,38.9657221 C30.736689,37.5489298 30.2325581,35.8897897 30.2325581,34.1077675 C30.2325581,28.9366247 34.3904651,24.7571182 39.5348837,24.7571182 Z M10.4651163,27.0947805 C8.86651686,27.0947805 7.55813953,28.4100078 7.55813953,30.0168584 C7.55813953,31.6237091 8.86651686,32.9389364 10.4651163,32.9389364 C12.0637157,32.9389364 13.372093,31.6237091 13.372093,30.0168584 C13.372093,28.4100078 12.0637157,27.0947805 10.4651163,27.0947805 Z M39.5348837,27.0947805 C37.9362913,27.0947805 36.627907,28.4099494 36.627907,30.0168584 C36.627907,31.6237675 37.9362913,32.9389364 39.5348837,32.9389364 C41.1334762,32.9389364 42.4418605,31.6237675 42.4418605,30.0168584 C42.4418605,28.4099494 41.1334762,27.0947805 39.5348837,27.0947805 Z M10.4651163,28.2636117 C11.4352831,28.2636117 12.2093023,29.0416442 12.2093023,30.0168584 C12.2093023,30.9920727 11.4352831,31.7701052 10.4651163,31.7701052 C9.49494942,31.7701052 8.72093023,30.9920727 8.72093023,30.0168584 C8.72093023,29.0416442 9.49494942,28.2636117 10.4651163,28.2636117 Z M39.5348837,28.2636117 C40.5050576,28.2636117 41.2790698,29.0416442 41.2790698,30.0168584 C41.2790698,30.9920727 40.5050576,31.7701052 39.5348837,31.7701052 C38.5647099,31.7701052 37.7906977,30.9920727 37.7906977,30.0168584 C37.7906977,29.0416442 38.5647099,28.2636117 39.5348837,28.2636117 Z M39.5348837,36.4454299 C42.4713483,36.4454299 45.0785802,37.8174273 46.784157,39.9519234 C45.0791785,42.0892855 42.4756331,43.4584169 39.5348837,43.4584169 C36.5941343,43.4584169 33.990589,42.0892855 32.2856105,39.9519234 C33.9911872,37.8174273 36.5984192,36.4454299 39.5348837,36.4454299 Z" id="Shape"></path>
        </g>
    </g>
</svg>