<?xml version="1.0" encoding="UTF-8"?>
<svg width="52px" height="52px" viewBox="0 0 52 52" version="1.1" xmlns="http://www.w3.org/2000/svg" xmlns:xlink="http://www.w3.org/1999/xlink">
    <!-- Generator: Sketch 54.1 (76490) - https://sketchapp.com -->
    <title>transparency</title>
    <desc>Created with Sketch.</desc>
    <g id="transparency" stroke="none" stroke-width="1" fill="none" fill-rule="evenodd">
        <path d="M50.375,16.560337 C50.720459,16.560337 51,16.8422052 51,17.1898528 L51,42.3704842 C51,42.7181319 50.720459,43 50.375,43 L1.625,43 C1.279541,43 1,42.7181319 1,42.3704842 L1,17.1898528 C1,16.8422052 1.279541,16.560337 1.625,16.560337 L5.53945156,16.560337 C5.5521545,16.5378982 5.55894469,16.5131925 5.57458494,16.4920985 C9.10913087,11.7307706 14.5174561,9 20.4122314,9 C26.3076171,9 31.7159424,11.7307706 35.2504882,16.4920985 C35.2661285,16.5131925 35.2729187,16.5378982 35.2856216,16.560337 L42.9221116,16.560337 L46.5767823,10.1345424 C46.7476807,9.83300185 47.1297608,9.72910713 47.4288331,9.90124036 L50.6850586,11.7771851 C50.8291016,11.8601779 50.9346924,11.9972697 50.9780274,12.1586446 C51.0213623,12.3197121 51,12.4918454 50.9169922,12.6366217 L48.6862717,16.560337 L50.375,16.560337 Z M47.350708,11.3065852 L36.5535889,30.2916501 L36.3942871,33.1051061 L38.7252198,31.5476079 L47.0638428,16.8769392 C47.0661316,16.8729433 47.0696411,16.8701 47.0720063,16.8661809 L49.5217285,12.5573175 L47.350708,11.3065852 Z M20.4122314,10.2590316 C15.0737152,10.2590316 10.1630173,12.6610585 6.86467719,16.8669878 C6.98537425,17.0209471 7.11103037,17.1693737 7.23607612,17.3184917 C7.3135145,17.4108981 7.38820625,17.5065703 7.46728494,17.5971324 C7.61933875,17.7711484 7.77749612,17.937864 7.93538644,18.1048486 C8.0036695,18.1771215 8.06935862,18.2526987 8.13870981,18.3236269 C8.31124856,18.500025 8.48973825,18.668777 8.66868569,18.8368759 C8.72811862,18.8927039 8.78514837,18.9516826 8.845268,19.0065885 C9.03550694,19.1803355 9.23146794,19.3461673 9.42838262,19.5105392 C9.48152137,19.5549173 9.53260019,19.6022539 9.58623481,19.6459404 C9.78940562,19.8114266 9.99795512,19.9687671 10.2077253,20.1242633 C10.2588041,20.162148 10.3080137,20.2029913 10.3595121,20.2402996 C10.5733259,20.3951811 10.7923277,20.5416864 11.0124739,20.6861169 C11.0629805,20.7192372 11.1118086,20.7553161 11.1626204,20.7879368 C11.3837584,20.9296778 11.6097411,21.0628889 11.8367537,21.1940637 C11.8895872,21.2246097 11.9407804,21.258191 11.9939192,21.2881222 C12.2178037,21.4142636 12.4461897,21.5316446 12.6753386,21.6474503 C12.7345427,21.6773815 12.7920683,21.7106171 12.8516158,21.7398182 C13.0780562,21.8509363 13.3087691,21.9530251 13.5399398,22.0539613 C13.604637,22.0822019 13.6677702,22.1140927 13.732849,22.1415264 C13.9541396,22.2348549 14.1793211,22.3190004 14.4045409,22.4029537 C14.4824751,22.4320012 14.5587691,22.4650446 14.6371611,22.4929779 C14.8588332,22.5719363 15.0840911,22.6414812 15.3092345,22.7112566 C15.3932341,22.7372687 15.4756697,22.7675457 15.5601271,22.7922899 C15.7801208,22.856763 16.0033568,22.9116689 16.2263259,22.9673432 C16.3185652,22.9903968 16.4093169,23.0178689 16.5020141,23.0393856 C16.7202529,23.0900265 16.9413528,23.1308313 17.1620711,23.1729809 C17.2616347,23.1920001 17.3598632,23.2157068 17.4599227,23.2329586 C17.6786193,23.2706896 17.8997954,23.2985075 18.1206282,23.3278624 C18.2247695,23.3416945 18.3276519,23.3604447 18.4322127,23.3723941 C18.6573943,23.3981372 18.8849029,23.4137368 19.1119918,23.4306812 C19.2139206,23.4382889 19.3148574,23.4508915 19.4171676,23.4566933 C19.747139,23.4754819 20.0789032,23.4850107 20.4122314,23.4850107 C20.7455597,23.4850107 21.0773621,23.4754819 21.4073334,23.4566933 C21.5094528,23.4508915 21.610199,23.4382888 21.7120132,23.4307196 C21.9390259,23.4137752 22.1663437,23.3982141 22.391449,23.3724709 C22.507988,23.3591767 22.6227722,23.3385053 22.7387772,23.3228673 C22.9474793,23.2947036 23.1567536,23.2688068 23.3635483,23.2331122 C23.4859238,23.2120182 23.6062394,23.1835086 23.7278901,23.1597635 C23.9255296,23.1212256 24.1239319,23.0853005 24.3195496,23.0399618 C24.4468079,23.0104917 24.571663,22.9735291 24.6980057,22.9411389 C24.8860703,22.8929954 25.0751648,22.8476183 25.2610932,22.7931735 C25.3820954,22.7577479 25.5004273,22.7151756 25.6204758,22.6770989 C25.8084641,22.6175054 25.9974442,22.5604863 26.1829911,22.4944379 C26.3021241,22.4520577 26.4183579,22.4026847 26.5363846,22.3576919 C26.7201004,22.2876475 26.9048081,22.2201389 27.0858917,22.1438317 C27.1999894,22.095765 27.3110734,22.0409744 27.4240647,21.9904103 C27.6052246,21.9093386 27.7874146,21.8305722 27.9656754,21.7431993 C28.0774078,21.6884471 28.1858216,21.6272014 28.2963333,21.5699902 C28.4724198,21.4788518 28.6496124,21.3898266 28.8224945,21.2925406 C28.9295349,21.2323324 29.0331039,21.1657845 29.1388474,21.1032325 C29.3109665,21.0014126 29.4842301,20.9015907 29.6528778,20.7936233 C29.7586594,20.7259227 29.8606644,20.6519976 29.9650345,20.5819148 C30.1292572,20.4716035 30.2947388,20.3633286 30.4553757,20.2471387 C30.559021,20.1721762 30.6587372,20.091143 30.7608566,20.0137599 C30.917717,19.8948804 31.0759125,19.7779604 31.2290344,19.6534328 C31.3286362,19.5723995 31.4240799,19.4854876 31.5220413,19.4021106 C31.6726074,19.2739712 31.8245087,19.147753 31.9711075,19.0140424 C32.067543,18.9260546 32.1596679,18.8323035 32.2543487,18.7419335 C32.3971329,18.605687 32.5413284,18.4713232 32.6799927,18.3297359 C32.7727661,18.2349858 32.8609237,18.1345491 32.951828,18.0374168 C33.0868683,17.89314 33.22332,17.750669 33.3540497,17.6011666 C33.4428177,17.4996157 33.5267792,17.3925704 33.6135254,17.2886757 C33.7300644,17.1490864 33.8476715,17.0108035 33.9603958,16.8669878 C30.6620559,12.6607511 25.751358,10.2590316 20.4122314,10.2590316 Z M49.75,41.7409684 L49.75,17.8193684 L47.97052,17.8193686 L39.7365722,32.302535 C39.6877441,32.387372 39.6206054,32.4599139 39.5394287,32.5140129 L36.045166,34.8494919 C35.9940872,34.8840338 35.9389649,34.9091622 35.8819351,34.9267597 C35.8682785,34.9309477 35.8539352,34.9307556 35.8400497,34.9339831 C35.7965241,34.9441651 35.7528839,34.9528102 35.7082901,34.9533481 C35.7053909,34.9533866 35.7026063,34.9546161 35.6997071,34.9546161 C35.6690369,34.9546161 35.6389771,34.9472389 35.6086121,34.9427051 C35.5874786,34.939516 35.5661926,34.9398618 35.5453644,34.9344827 C35.4913101,34.9206121 35.4385147,34.8999023 35.3884277,34.8710085 C35.1833496,34.7526669 35.0625,34.5273569 35.0759277,34.2894442 L35.3139649,30.0718728 C35.319458,29.9744331 35.3469239,29.8794525 35.3951416,29.7946154 L42.2036132,17.8193684 L34.8079833,17.8193684 C34.7276839,17.9194209 34.6420058,18.0133641 34.5599517,18.1114954 C34.4462356,18.2474729 34.3332442,18.3840653 34.2162474,18.5162774 C34.0982207,18.6496422 33.9764556,18.7783964 33.8551863,18.9078805 C33.7359771,19.0351746 33.617607,19.1634292 33.4953459,19.2869194 C33.3697661,19.4137908 33.2404479,19.5356288 33.1117018,19.6584274 C32.9876097,19.7768459 32.8645094,19.8963402 32.7375944,20.0109548 C32.6049193,20.1307565 32.4685058,20.2451405 32.3328169,20.3607541 C32.2039565,20.470489 32.0762404,20.581684 31.9447859,20.6875767 C31.8052443,20.8000012 31.6620406,20.9067007 31.5195998,21.0147451 C31.3864286,21.1157965 31.2544783,21.2185769 31.1188276,21.3157861 C30.9730681,21.4202571 30.8237227,21.5186574 30.6752165,21.618633 C30.5376585,21.7112314 30.4013975,21.8058663 30.2615889,21.8946224 C30.1098021,21.9909479 29.9545821,22.08078 29.8002013,22.1724947 C29.6589049,22.256448 29.5189055,22.3427068 29.375511,22.422741 C29.2176588,22.5108441 29.0564497,22.5921847 28.8961561,22.6754849 C28.7517317,22.7505627 28.6086424,22.8282531 28.4623106,22.8994118 C28.2986601,22.978985 28.1316908,23.0513732 27.9657515,23.1260283 C27.8184661,23.1922688 27.672592,23.2615063 27.5235899,23.3237893 C27.3545989,23.3944869 27.1824034,23.4575384 27.0112761,23.5231258 C26.8614348,23.5805676 26.7130431,23.6412368 26.5615996,23.6946827 C26.3864287,23.756543 26.2082823,23.8104115 26.0310515,23.8669696 C25.8803328,23.9150746 25.7310256,23.9667914 25.5788954,24.0110159 C25.3955611,24.064308 25.2094039,24.1091087 25.024124,24.1567143 C24.8748931,24.1950985 24.7270735,24.2374786 24.57666,24.2720974 C24.3843611,24.3163987 24.1893919,24.3516322 23.995262,24.3897858 C23.8490065,24.4185259 23.704048,24.4516846 23.5568007,24.4769282 C23.3516844,24.5120465 23.1442031,24.5375975 22.937332,24.5658765 C22.8047331,24.584012 22.6734313,24.6076419 22.5401458,24.6228957 C22.5339278,24.6236257 22.5275954,24.6238179 22.5213774,24.6245095 C22.2907027,24.6507137 22.0577391,24.6666206 21.8251952,24.6841797 C21.7074737,24.6930938 21.5907821,24.7071949 21.4726027,24.7138804 C21.1209258,24.7337833 20.7674178,24.7440422 20.4122314,24.7440422 C20.0570067,24.7440422 19.7034606,24.7337833 19.3517837,24.7138804 C19.2361984,24.7073486 19.1221771,24.6935164 19.0070114,24.6848329 C18.771759,24.6671586 18.5361251,24.6509442 18.3028183,24.6244711 C18.1673583,24.609102 18.0338439,24.5858948 17.8991088,24.5675672 C17.6880035,24.5388655 17.4762496,24.5126997 17.2670135,24.476813 C17.1248397,24.4524531 16.9848404,24.420255 16.8435821,24.3926291 C16.6443024,24.3536687 16.4443359,24.3172825 16.2469635,24.2718285 C16.1020051,24.2384393 15.9594498,24.1975193 15.8155976,24.1606336 C15.6247864,24.11176 15.4330597,24.0654608 15.2442704,24.0105549 C15.0976716,23.9679058 14.953743,23.9179564 14.8084412,23.8716956 C14.6257172,23.8135622 14.4421539,23.7578879 14.2615662,23.6941064 C14.1148529,23.6422743 13.9710388,23.5834109 13.8258133,23.5278519 C13.6499558,23.4606123 13.4732209,23.3956782 13.299614,23.3230979 C13.1548462,23.2625439 13.0132065,23.1952659 12.8700791,23.1310234 C12.6997909,23.0545624 12.5286255,22.9802147 12.3607788,22.8985667 C12.2183762,22.8292907 12.0792161,22.7535982 11.9386444,22.6806337 C11.7744217,22.5954124 11.6093598,22.5120738 11.4477311,22.4218191 C11.3073884,22.3434754 11.1704789,22.259061 11.0321579,22.1769519 C10.8748399,22.083585 10.7166062,21.9919087 10.5619584,21.893739 C10.4242478,21.8063276 10.2900086,21.7130759 10.1545106,21.6218607 C10.0041352,21.520694 9.85295875,21.4210258 9.70540625,21.3152484 C9.57097637,21.2188845 9.4402085,21.1170262 9.30822,21.016897 C9.16459669,20.9079304 9.02021038,20.8003856 8.87948619,20.6870005 C8.74894725,20.5818763 8.622223,20.4714882 8.49431619,20.3625601 C8.35775,20.2462549 8.22053531,20.1311024 8.08702094,20.0105323 C7.96071631,19.8964941 7.83822638,19.7775762 7.71474463,19.6597725 C7.58538825,19.5363975 7.45549781,19.4139831 7.32934575,19.2865354 C7.20738987,19.1633141 7.089325,19.0354053 6.97038275,18.9084186 C6.84896094,18.7787424 6.72700506,18.6498346 6.60882575,18.5162776 C6.49182894,18.3840655 6.37883763,18.2474731 6.2651215,18.1114956 C6.18306738,18.0133643 6.09738925,17.919421 6.01708987,17.8193686 L2.25,17.8193684 L2.25,41.7409684 L49.75,41.7409684 Z M25.375,29.7801685 C25.720459,29.7801685 26,30.0620367 26,30.4096843 C26,30.7573319 25.720459,31.0392001 25.375,31.0392001 L5.375,31.0392001 C5.029541,31.0392001 4.75,30.7573319 4.75,30.4096843 C4.75,30.0620367 5.029541,29.7801685 5.375,29.7801685 L25.375,29.7801685 Z M19.75,36.0753264 C20.095459,36.0753264 20.375,36.3571945 20.375,36.7048421 C20.375,37.0524898 20.095459,37.3343579 19.75,37.3343579 L5.375,37.3343579 C5.029541,37.3343579 4.75,37.0524898 4.75,36.7048421 C4.75,36.3571945 5.029541,36.0753264 5.375,36.0753264 L19.75,36.0753264 Z M20.4122314,22.2198315 C17.4849854,22.2198315 15.1033936,19.8207247 15.1033936,16.8720211 C15.1033936,13.9233176 17.4849853,11.5242107 20.4122314,11.5242107 C23.3400879,11.5242107 25.7216797,13.9233176 25.7216797,16.8720211 C25.7216797,19.8207247 23.3400879,22.2198315 20.4122314,22.2198315 Z M20.4122314,12.7832423 C18.1740723,12.7832423 16.3533936,14.6173833 16.3533936,16.8720211 C16.3533936,19.126659 18.1740723,20.9607999 20.4122314,20.9607999 C22.6503906,20.9607999 24.4716797,19.126659 24.4716797,16.8720211 C24.4716797,14.6173833 22.6503906,12.7832423 20.4122314,12.7832423 Z" id="Combined-Shape" fill="#000000" fill-rule="nonzero"></path>
    </g>
</svg>