<?xml version="1.0" encoding="UTF-8"?>
<svg width="26px" height="26px" viewBox="0 0 26 26" version="1.1" xmlns="http://www.w3.org/2000/svg" xmlns:xlink="http://www.w3.org/1999/xlink">
    <!-- Generator: Sketch 54.1 (76490) - https://sketchapp.com -->
    <title>tweeter</title>
    <desc>Created with Sketch.</desc>
    <g id="tweeter" stroke="none" stroke-width="1" fill="none" fill-rule="evenodd">
        <path d="M21,8.53125 C20.4166638,8.79166797 19.7864617,8.96874953 19.109375,9.0625 C19.8177119,8.64583125 20.302082,8.03646234 20.5625,7.234375 C19.8854133,7.63021031 19.1875036,7.89583266 18.46875,8.03125 C17.8333302,7.34374656 17.0364631,7 16.078125,7 C15.1718705,7 14.3984407,7.3203093 13.7578125,7.9609375 C13.1171843,8.6015657 12.796875,9.37499547 12.796875,10.28125 C12.796875,10.5833348 12.8229164,10.8333323 12.875,11.03125 C11.5312433,10.958333 10.2708392,10.6197947 9.09375,10.015625 C7.91666078,9.41145531 6.91667078,8.60417172 6.09375,7.59375 C5.79166516,8.11458594 5.640625,8.66666375 5.640625,9.25 C5.640625,10.4375059 6.11457859,11.3489552 7.0625,11.984375 C6.57291422,11.9739583 6.05208609,11.838543 5.5,11.578125 L5.5,11.609375 C5.5,12.3906289 5.76041406,13.0859345 6.28125,13.6953125 C6.80208594,14.3046905 7.44270453,14.6822909 8.203125,14.828125 C7.90104016,14.9114587 7.63541781,14.953125 7.40625,14.953125 C7.27083266,14.953125 7.06770969,14.9322919 6.796875,14.890625 C7.01562609,15.5468783 7.40364305,16.0885395 7.9609375,16.515625 C8.51823195,16.9427105 9.15103813,17.1614583 9.859375,17.171875 C8.65103563,18.1093797 7.29167422,18.578125 5.78125,18.578125 C5.51041531,18.578125 5.25000125,18.5625002 5,18.53125 C6.54167438,19.5104216 8.21874094,20 10.03125,20 C11.1979225,20 12.2916616,19.815106 13.3125,19.4453125 C14.3333384,19.075519 15.2083297,18.5807323 15.9375,17.9609375 C16.6666703,17.3411427 17.2942682,16.6276082 17.8203125,15.8203125 C18.3463568,15.0130168 18.7369779,14.1692752 18.9921875,13.2890625 C19.2473971,12.4088498 19.375,11.5312544 19.375,10.65625 C19.375,10.4687491 19.3697917,10.3281255 19.359375,10.234375 C20.0156283,9.76562266 20.5624978,9.19792 21,8.53125 Z M25,5.5 L25,20.5 C25,21.7395895 24.5599002,22.7994748 23.6796875,23.6796875 C22.7994748,24.5599002 21.7395895,25 20.5,25 L5.5,25 C4.26041047,25 3.20052523,24.5599002 2.3203125,23.6796875 C1.44009977,22.7994748 1,21.7395895 1,20.5 L1,5.5 C1,4.26041047 1.44009977,3.20052523 2.3203125,2.3203125 C3.20052523,1.44009977 4.26041047,1 5.5,1 L20.5,1 C21.7395895,1 22.7994748,1.44009977 23.6796875,2.3203125 C24.5599002,3.20052523 25,4.26041047 25,5.5 Z" id="ï‚" fill="#FFFFFF" fill-rule="nonzero"></path>
    </g>
</svg>